<mxfile host="app.diagrams.net" modified="2022-04-21T17:03:29.834Z" agent="5.0 (Windows NT 10.0; Win64; x64) AppleWebKit/537.36 (KHTML, like Gecko) Chrome/100.0.4896.127 Safari/537.36" etag="iFxnKhXarGj2zpHvjkmA" version="17.4.6" type="github" pages="2">
  <diagram id="M_5o9T0Zfa3jsSFbfTRQ" name="ER Diagram ">
    <mxGraphModel dx="1692" dy="1632" grid="1" gridSize="10" guides="1" tooltips="1" connect="1" arrows="1" fold="1" page="1" pageScale="1" pageWidth="827" pageHeight="1169" math="0" shadow="0">
      <root>
        <mxCell id="0" />
        <mxCell id="1" parent="0" />
        <mxCell id="R-2MHPUn--8WQAwCCb6K-1" value="User" style="rounded=0;whiteSpace=wrap;html=1;" parent="1" vertex="1">
          <mxGeometry x="196" y="310" width="120" height="60" as="geometry" />
        </mxCell>
        <mxCell id="gWIL4lwPZoUMI15kpGQ2-3" value="Inquires" style="whiteSpace=wrap;html=1;align=center;" parent="1" vertex="1">
          <mxGeometry x="103" y="820" width="100" height="40" as="geometry" />
        </mxCell>
        <mxCell id="gWIL4lwPZoUMI15kpGQ2-4" value="MeterHandling" style="whiteSpace=wrap;html=1;align=center;" parent="1" vertex="1">
          <mxGeometry x="-405" y="445" width="100" height="40" as="geometry" />
        </mxCell>
        <mxCell id="gWIL4lwPZoUMI15kpGQ2-6" value="Units" style="ellipse;whiteSpace=wrap;html=1;align=center;" parent="1" vertex="1">
          <mxGeometry x="-573" y="460" width="100" height="40" as="geometry" />
        </mxCell>
        <mxCell id="gWIL4lwPZoUMI15kpGQ2-7" value="Cus_Name" style="ellipse;whiteSpace=wrap;html=1;align=center;" parent="1" vertex="1">
          <mxGeometry x="-515" y="520" width="100" height="40" as="geometry" />
        </mxCell>
        <mxCell id="gWIL4lwPZoUMI15kpGQ2-8" value="Bill" style="whiteSpace=wrap;html=1;align=center;" parent="1" vertex="1">
          <mxGeometry x="13" y="1030" width="100" height="40" as="geometry" />
        </mxCell>
        <mxCell id="GwoW-9eUFXNhQJcoqlGR-5" value="Notice_ID" style="ellipse;whiteSpace=wrap;html=1;align=center;fontStyle=4;" parent="1" vertex="1">
          <mxGeometry x="106" width="100" height="40" as="geometry" />
        </mxCell>
        <mxCell id="GwoW-9eUFXNhQJcoqlGR-10" value="Notice_Details" style="ellipse;whiteSpace=wrap;html=1;align=center;" parent="1" vertex="1">
          <mxGeometry x="-45" y="-10" width="110" height="40" as="geometry" />
        </mxCell>
        <mxCell id="GwoW-9eUFXNhQJcoqlGR-11" value="Title" style="ellipse;whiteSpace=wrap;html=1;align=center;" parent="1" vertex="1">
          <mxGeometry x="161" y="60" width="110" height="40" as="geometry" />
        </mxCell>
        <mxCell id="0ZwmMBX9CB_PH2E3g_sw-1" value="Customer" style="rounded=0;whiteSpace=wrap;html=1;" parent="1" vertex="1">
          <mxGeometry x="320" y="555" width="120" height="60" as="geometry" />
        </mxCell>
        <mxCell id="0ZwmMBX9CB_PH2E3g_sw-2" value="Administrator" style="rounded=0;whiteSpace=wrap;html=1;" parent="1" vertex="1">
          <mxGeometry x="10" y="580" width="120" height="60" as="geometry" />
        </mxCell>
        <mxCell id="0ZwmMBX9CB_PH2E3g_sw-5" value="" style="triangle;whiteSpace=wrap;html=1;rotation=-90;" parent="1" vertex="1">
          <mxGeometry x="226" y="430" width="60" height="80" as="geometry" />
        </mxCell>
        <mxCell id="0ZwmMBX9CB_PH2E3g_sw-6" value="ISA" style="text;html=1;strokeColor=none;fillColor=none;align=center;verticalAlign=middle;whiteSpace=wrap;rounded=0;" parent="1" vertex="1">
          <mxGeometry x="236" y="470" width="40" height="20" as="geometry" />
        </mxCell>
        <mxCell id="0ZwmMBX9CB_PH2E3g_sw-7" value="" style="endArrow=none;html=1;entryX=0.5;entryY=1;entryDx=0;entryDy=0;exitX=1;exitY=0.5;exitDx=0;exitDy=0;" parent="1" source="0ZwmMBX9CB_PH2E3g_sw-5" target="R-2MHPUn--8WQAwCCb6K-1" edge="1">
          <mxGeometry width="50" height="50" relative="1" as="geometry">
            <mxPoint x="376" y="430" as="sourcePoint" />
            <mxPoint x="446" y="360" as="targetPoint" />
          </mxGeometry>
        </mxCell>
        <mxCell id="0ZwmMBX9CB_PH2E3g_sw-8" value="" style="endArrow=none;html=1;entryX=0;entryY=0.75;entryDx=0;entryDy=0;exitX=0;exitY=0;exitDx=0;exitDy=0;" parent="1" source="0ZwmMBX9CB_PH2E3g_sw-1" target="0ZwmMBX9CB_PH2E3g_sw-5" edge="1">
          <mxGeometry width="50" height="50" relative="1" as="geometry">
            <mxPoint x="545.71" y="550" as="sourcePoint" />
            <mxPoint x="545.71" y="484" as="targetPoint" />
          </mxGeometry>
        </mxCell>
        <mxCell id="K307Wzx5Uyk_XyWvb7QZ-1" value="Payment" style="rounded=0;whiteSpace=wrap;html=1;" parent="1" vertex="1">
          <mxGeometry x="406" y="-150" width="120" height="60" as="geometry" />
        </mxCell>
        <mxCell id="0ZwmMBX9CB_PH2E3g_sw-10" value="" style="endArrow=none;html=1;exitX=0.558;exitY=0.021;exitDx=0;exitDy=0;exitPerimeter=0;entryX=0.014;entryY=0.187;entryDx=0;entryDy=0;entryPerimeter=0;" parent="1" source="0ZwmMBX9CB_PH2E3g_sw-2" target="0ZwmMBX9CB_PH2E3g_sw-5" edge="1">
          <mxGeometry width="50" height="50" relative="1" as="geometry">
            <mxPoint x="326.0000000000001" y="580" as="sourcePoint" />
            <mxPoint x="417" y="486" as="targetPoint" />
          </mxGeometry>
        </mxCell>
        <mxCell id="GwoW-9eUFXNhQJcoqlGR-13" value="Published_Date" style="ellipse;whiteSpace=wrap;html=1;align=center;" parent="1" vertex="1">
          <mxGeometry x="-174" y="60" width="110" height="40" as="geometry" />
        </mxCell>
        <mxCell id="K307Wzx5Uyk_XyWvb7QZ-3" value="&lt;u&gt;Pay_ID&lt;/u&gt;" style="ellipse;whiteSpace=wrap;html=1;align=center;" parent="1" vertex="1">
          <mxGeometry x="290" y="-90" width="100" height="40" as="geometry" />
        </mxCell>
        <mxCell id="iZ0bgMCoI2NrM_kVkU7W-5" value="AccountNo" style="ellipse;whiteSpace=wrap;html=1;align=center;" parent="1" vertex="1">
          <mxGeometry x="393" y="-220" width="100" height="40" as="geometry" />
        </mxCell>
        <mxCell id="GwoW-9eUFXNhQJcoqlGR-20" value="Notices" style="rounded=0;whiteSpace=wrap;html=1;" parent="1" vertex="1">
          <mxGeometry x="-17" y="70" width="120" height="60" as="geometry" />
        </mxCell>
        <mxCell id="BmbAjrQ7ErxFybZsGOEc-1" value="" style="endArrow=none;html=1;entryX=0.5;entryY=1;entryDx=0;entryDy=0;exitX=1;exitY=0.25;exitDx=0;exitDy=0;" parent="1" source="gWIL4lwPZoUMI15kpGQ2-8" target="BmbAjrQ7ErxFybZsGOEc-19" edge="1">
          <mxGeometry width="50" height="50" relative="1" as="geometry">
            <mxPoint x="300" y="1069.9999999999995" as="sourcePoint" />
            <mxPoint x="590" y="1140" as="targetPoint" />
          </mxGeometry>
        </mxCell>
        <mxCell id="GwoW-9eUFXNhQJcoqlGR-23" value="" style="endArrow=none;html=1;entryX=1;entryY=0;entryDx=0;entryDy=0;" parent="1" source="GwoW-9eUFXNhQJcoqlGR-5" target="GwoW-9eUFXNhQJcoqlGR-20" edge="1">
          <mxGeometry width="50" height="50" relative="1" as="geometry">
            <mxPoint x="190" y="10" as="sourcePoint" />
            <mxPoint x="-110" y="60" as="targetPoint" />
          </mxGeometry>
        </mxCell>
        <mxCell id="iZ0bgMCoI2NrM_kVkU7W-7" value="Cus_name" style="ellipse;whiteSpace=wrap;html=1;align=center;" parent="1" vertex="1">
          <mxGeometry x="526" y="-210" width="110" height="40" as="geometry" />
        </mxCell>
        <mxCell id="GwoW-9eUFXNhQJcoqlGR-24" value="" style="endArrow=none;html=1;entryX=1;entryY=0.75;entryDx=0;entryDy=0;exitX=0;exitY=1;exitDx=0;exitDy=0;" parent="1" source="GwoW-9eUFXNhQJcoqlGR-11" target="GwoW-9eUFXNhQJcoqlGR-20" edge="1">
          <mxGeometry width="50" height="50" relative="1" as="geometry">
            <mxPoint x="86" as="sourcePoint" />
            <mxPoint x="66" y="-60" as="targetPoint" />
          </mxGeometry>
        </mxCell>
        <mxCell id="GwoW-9eUFXNhQJcoqlGR-25" value="" style="endArrow=none;html=1;entryX=0.333;entryY=-0.005;entryDx=0;entryDy=0;exitX=0.5;exitY=1;exitDx=0;exitDy=0;entryPerimeter=0;" parent="1" source="GwoW-9eUFXNhQJcoqlGR-10" target="GwoW-9eUFXNhQJcoqlGR-20" edge="1">
          <mxGeometry width="50" height="50" relative="1" as="geometry">
            <mxPoint x="66" y="140" as="sourcePoint" />
            <mxPoint x="46" y="80" as="targetPoint" />
          </mxGeometry>
        </mxCell>
        <mxCell id="BmbAjrQ7ErxFybZsGOEc-19" value="Receive&amp;nbsp;" style="rhombus;whiteSpace=wrap;html=1;rotation=0;" parent="1" vertex="1">
          <mxGeometry x="413" y="850" width="80" height="80" as="geometry" />
        </mxCell>
        <mxCell id="BmbAjrQ7ErxFybZsGOEc-20" value="" style="endArrow=none;html=1;exitX=0.5;exitY=0;exitDx=0;exitDy=0;entryX=0.25;entryY=1;entryDx=0;entryDy=0;" parent="1" source="BmbAjrQ7ErxFybZsGOEc-19" target="0ZwmMBX9CB_PH2E3g_sw-1" edge="1">
          <mxGeometry width="50" height="50" relative="1" as="geometry">
            <mxPoint x="590" y="1060" as="sourcePoint" />
            <mxPoint x="316" y="720" as="targetPoint" />
          </mxGeometry>
        </mxCell>
        <mxCell id="GwoW-9eUFXNhQJcoqlGR-27" value="" style="endArrow=none;html=1;exitX=0;exitY=0.25;exitDx=0;exitDy=0;entryX=1;entryY=0.5;entryDx=0;entryDy=0;" parent="1" source="GwoW-9eUFXNhQJcoqlGR-20" target="GwoW-9eUFXNhQJcoqlGR-13" edge="1">
          <mxGeometry width="50" height="50" relative="1" as="geometry">
            <mxPoint x="-114" y="20" as="sourcePoint" />
            <mxPoint x="-134" y="-40" as="targetPoint" />
          </mxGeometry>
        </mxCell>
        <mxCell id="iZ0bgMCoI2NrM_kVkU7W-11" value="Pay_date" style="ellipse;whiteSpace=wrap;html=1;align=center;" parent="1" vertex="1">
          <mxGeometry x="550" y="-150" width="100" height="40" as="geometry" />
        </mxCell>
        <mxCell id="iZ0bgMCoI2NrM_kVkU7W-12" value="Total_amount" style="ellipse;whiteSpace=wrap;html=1;align=center;" parent="1" vertex="1">
          <mxGeometry x="550" y="-80" width="100" height="40" as="geometry" />
        </mxCell>
        <mxCell id="ElF4rmFvOYkhaGS9MpUQ-2" value="" style="endArrow=none;html=1;entryX=0;entryY=1;entryDx=0;entryDy=0;exitX=1;exitY=0.5;exitDx=0;exitDy=0;" parent="1" source="K307Wzx5Uyk_XyWvb7QZ-3" target="K307Wzx5Uyk_XyWvb7QZ-1" edge="1">
          <mxGeometry width="50" height="50" relative="1" as="geometry">
            <mxPoint x="351.35533905932743" y="-4.142135623731065" as="sourcePoint" />
            <mxPoint x="416" y="-80" as="targetPoint" />
          </mxGeometry>
        </mxCell>
        <mxCell id="ElF4rmFvOYkhaGS9MpUQ-6" value="" style="endArrow=none;html=1;exitX=0.5;exitY=1;exitDx=0;exitDy=0;" parent="1" source="iZ0bgMCoI2NrM_kVkU7W-5" target="K307Wzx5Uyk_XyWvb7QZ-1" edge="1">
          <mxGeometry width="50" height="50" relative="1" as="geometry">
            <mxPoint x="531" y="-290" as="sourcePoint" />
            <mxPoint x="456" y="-40" as="targetPoint" />
          </mxGeometry>
        </mxCell>
        <mxCell id="ElF4rmFvOYkhaGS9MpUQ-8" value="" style="endArrow=none;html=1;entryX=0;entryY=1;entryDx=0;entryDy=0;exitX=1;exitY=0;exitDx=0;exitDy=0;" parent="1" source="K307Wzx5Uyk_XyWvb7QZ-1" target="iZ0bgMCoI2NrM_kVkU7W-7" edge="1">
          <mxGeometry width="50" height="50" relative="1" as="geometry">
            <mxPoint x="411.35533905932743" y="55.857864376268935" as="sourcePoint" />
            <mxPoint x="646" y="-172" as="targetPoint" />
          </mxGeometry>
        </mxCell>
        <mxCell id="ElF4rmFvOYkhaGS9MpUQ-9" value="" style="endArrow=none;html=1;entryX=0;entryY=0.5;entryDx=0;entryDy=0;exitX=1;exitY=0.75;exitDx=0;exitDy=0;" parent="1" source="K307Wzx5Uyk_XyWvb7QZ-1" target="iZ0bgMCoI2NrM_kVkU7W-11" edge="1">
          <mxGeometry width="50" height="50" relative="1" as="geometry">
            <mxPoint x="421.35533905932743" y="65.85786437626894" as="sourcePoint" />
            <mxPoint x="626" y="-103" as="targetPoint" />
          </mxGeometry>
        </mxCell>
        <mxCell id="ElF4rmFvOYkhaGS9MpUQ-10" value="" style="endArrow=none;html=1;entryX=0;entryY=0;entryDx=0;entryDy=0;exitX=0.908;exitY=0.997;exitDx=0;exitDy=0;exitPerimeter=0;" parent="1" source="K307Wzx5Uyk_XyWvb7QZ-1" target="iZ0bgMCoI2NrM_kVkU7W-12" edge="1">
          <mxGeometry width="50" height="50" relative="1" as="geometry">
            <mxPoint x="431.35533905932743" y="75.85786437626894" as="sourcePoint" />
            <mxPoint x="496" as="targetPoint" />
          </mxGeometry>
        </mxCell>
        <mxCell id="XLiFxqXhWqaqg-ymZsb6-1" value="View" style="rhombus;whiteSpace=wrap;html=1;" parent="1" vertex="1">
          <mxGeometry x="176" y="120" width="80" height="80" as="geometry" />
        </mxCell>
        <mxCell id="kNvfrcT3U_PSBVfQfXv5-1" value="Pay" style="rhombus;whiteSpace=wrap;html=1;" parent="1" vertex="1">
          <mxGeometry x="420.5" y="40" width="80" height="80" as="geometry" />
        </mxCell>
        <mxCell id="XLiFxqXhWqaqg-ymZsb6-2" value="" style="endArrow=none;html=1;entryX=0;entryY=0.5;entryDx=0;entryDy=0;exitX=0.5;exitY=1;exitDx=0;exitDy=0;" parent="1" source="GwoW-9eUFXNhQJcoqlGR-20" target="XLiFxqXhWqaqg-ymZsb6-1" edge="1">
          <mxGeometry width="50" height="50" relative="1" as="geometry">
            <mxPoint x="20" y="290" as="sourcePoint" />
            <mxPoint x="90.71067811865476" y="240" as="targetPoint" />
          </mxGeometry>
        </mxCell>
        <mxCell id="kNvfrcT3U_PSBVfQfXv5-2" value="" style="endArrow=none;html=1;entryX=0.5;entryY=1;entryDx=0;entryDy=0;exitX=0.946;exitY=-0.01;exitDx=0;exitDy=0;exitPerimeter=0;" parent="1" source="0ZwmMBX9CB_PH2E3g_sw-1" target="kNvfrcT3U_PSBVfQfXv5-1" edge="1">
          <mxGeometry width="50" height="50" relative="1" as="geometry">
            <mxPoint x="460" y="584" as="sourcePoint" />
            <mxPoint x="286" y="510" as="targetPoint" />
          </mxGeometry>
        </mxCell>
        <mxCell id="kNvfrcT3U_PSBVfQfXv5-3" value="" style="endArrow=none;html=1;entryX=0.5;entryY=0;entryDx=0;entryDy=0;exitX=0.5;exitY=1;exitDx=0;exitDy=0;" parent="1" source="K307Wzx5Uyk_XyWvb7QZ-1" target="kNvfrcT3U_PSBVfQfXv5-1" edge="1">
          <mxGeometry width="50" height="50" relative="1" as="geometry">
            <mxPoint x="446" y="-90" as="sourcePoint" />
            <mxPoint x="376" y="270" as="targetPoint" />
          </mxGeometry>
        </mxCell>
        <mxCell id="gWIL4lwPZoUMI15kpGQ2-10" value="" style="endArrow=none;html=1;exitX=0.5;exitY=0;exitDx=0;exitDy=0;entryX=0;entryY=1;entryDx=0;entryDy=0;startArrow=none;" parent="1" source="gWIL4lwPZoUMI15kpGQ2-27" target="0ZwmMBX9CB_PH2E3g_sw-2" edge="1">
          <mxGeometry width="50" height="50" relative="1" as="geometry">
            <mxPoint x="250" y="830" as="sourcePoint" />
            <mxPoint x="300" y="780" as="targetPoint" />
          </mxGeometry>
        </mxCell>
        <mxCell id="gWIL4lwPZoUMI15kpGQ2-11" value="" style="endArrow=none;html=1;exitX=1.007;exitY=0.6;exitDx=0;exitDy=0;entryX=0;entryY=0.5;entryDx=0;entryDy=0;exitPerimeter=0;" parent="1" source="gWIL4lwPZoUMI15kpGQ2-4" target="gWIL4lwPZoUMI15kpGQ2-28" edge="1">
          <mxGeometry width="50" height="50" relative="1" as="geometry">
            <mxPoint x="-40" y="1080" as="sourcePoint" />
            <mxPoint x="190" y="650" as="targetPoint" />
          </mxGeometry>
        </mxCell>
        <mxCell id="XLiFxqXhWqaqg-ymZsb6-4" value="" style="endArrow=none;html=1;exitX=1;exitY=0.5;exitDx=0;exitDy=0;entryX=0.595;entryY=0.003;entryDx=0;entryDy=0;entryPerimeter=0;" parent="1" source="XLiFxqXhWqaqg-ymZsb6-1" target="0ZwmMBX9CB_PH2E3g_sw-1" edge="1">
          <mxGeometry width="50" height="50" relative="1" as="geometry">
            <mxPoint x="80" y="380" as="sourcePoint" />
            <mxPoint x="427" y="580" as="targetPoint" />
            <Array as="points">
              <mxPoint x="427" y="160" />
            </Array>
          </mxGeometry>
        </mxCell>
        <mxCell id="gWIL4lwPZoUMI15kpGQ2-15" value="" style="endArrow=none;html=1;entryX=0.298;entryY=1;entryDx=0;entryDy=0;entryPerimeter=0;exitX=0.5;exitY=0;exitDx=0;exitDy=0;" parent="1" source="gWIL4lwPZoUMI15kpGQ2-31" target="0ZwmMBX9CB_PH2E3g_sw-2" edge="1">
          <mxGeometry width="50" height="50" relative="1" as="geometry">
            <mxPoint x="80" y="960" as="sourcePoint" />
            <mxPoint x="244.11764705882342" y="650" as="targetPoint" />
          </mxGeometry>
        </mxCell>
        <mxCell id="gWIL4lwPZoUMI15kpGQ2-16" value="" style="endArrow=none;html=1;entryX=0;entryY=0.25;entryDx=0;entryDy=0;exitX=1;exitY=0.5;exitDx=0;exitDy=0;" parent="1" source="gWIL4lwPZoUMI15kpGQ2-72" target="gWIL4lwPZoUMI15kpGQ2-4" edge="1">
          <mxGeometry width="50" height="50" relative="1" as="geometry">
            <mxPoint x="-258" y="480" as="sourcePoint" />
            <mxPoint x="35" y="470" as="targetPoint" />
          </mxGeometry>
        </mxCell>
        <mxCell id="gWIL4lwPZoUMI15kpGQ2-18" value="" style="endArrow=none;html=1;exitX=1;exitY=0;exitDx=0;exitDy=0;entryX=0;entryY=1;entryDx=0;entryDy=0;" parent="1" source="gWIL4lwPZoUMI15kpGQ2-81" target="gWIL4lwPZoUMI15kpGQ2-3" edge="1">
          <mxGeometry width="50" height="50" relative="1" as="geometry">
            <mxPoint x="-23" y="1140" as="sourcePoint" />
            <mxPoint x="30" y="1000" as="targetPoint" />
          </mxGeometry>
        </mxCell>
        <mxCell id="gWIL4lwPZoUMI15kpGQ2-20" value="" style="endArrow=none;html=1;entryX=0.25;entryY=1;entryDx=0;entryDy=0;exitX=0.5;exitY=0;exitDx=0;exitDy=0;" parent="1" source="gWIL4lwPZoUMI15kpGQ2-73" target="gWIL4lwPZoUMI15kpGQ2-8" edge="1">
          <mxGeometry width="50" height="50" relative="1" as="geometry">
            <mxPoint x="-52" y="890" as="sourcePoint" />
            <mxPoint x="17" y="920" as="targetPoint" />
          </mxGeometry>
        </mxCell>
        <mxCell id="gWIL4lwPZoUMI15kpGQ2-28" value="Manage" style="rhombus;whiteSpace=wrap;html=1;" parent="1" vertex="1">
          <mxGeometry x="-198" y="470" width="80" height="80" as="geometry" />
        </mxCell>
        <mxCell id="gWIL4lwPZoUMI15kpGQ2-29" value="" style="endArrow=none;html=1;exitX=1;exitY=0.5;exitDx=0;exitDy=0;entryX=0;entryY=0.5;entryDx=0;entryDy=0;" parent="1" source="gWIL4lwPZoUMI15kpGQ2-28" target="0ZwmMBX9CB_PH2E3g_sw-2" edge="1">
          <mxGeometry width="50" height="50" relative="1" as="geometry">
            <mxPoint x="-101" y="655" as="sourcePoint" />
            <mxPoint x="-20" y="605" as="targetPoint" />
          </mxGeometry>
        </mxCell>
        <mxCell id="gWIL4lwPZoUMI15kpGQ2-27" value="Manage" style="rhombus;whiteSpace=wrap;html=1;" parent="1" vertex="1">
          <mxGeometry x="-260" y="770" width="80" height="80" as="geometry" />
        </mxCell>
        <mxCell id="gWIL4lwPZoUMI15kpGQ2-30" value="" style="endArrow=none;html=1;exitX=0.5;exitY=0;exitDx=0;exitDy=0;entryX=0.5;entryY=1;entryDx=0;entryDy=0;" parent="1" source="gWIL4lwPZoUMI15kpGQ2-8" target="gWIL4lwPZoUMI15kpGQ2-27" edge="1">
          <mxGeometry width="50" height="50" relative="1" as="geometry">
            <mxPoint x="-14" y="795" as="sourcePoint" />
            <mxPoint x="70" y="640" as="targetPoint" />
          </mxGeometry>
        </mxCell>
        <mxCell id="gWIL4lwPZoUMI15kpGQ2-31" value="Receive" style="rhombus;whiteSpace=wrap;html=1;" parent="1" vertex="1">
          <mxGeometry x="-20" y="700" width="80" height="80" as="geometry" />
        </mxCell>
        <mxCell id="gWIL4lwPZoUMI15kpGQ2-32" value="" style="endArrow=none;html=1;exitX=0.593;exitY=-0.013;exitDx=0;exitDy=0;exitPerimeter=0;entryX=0.5;entryY=1;entryDx=0;entryDy=0;" parent="1" source="gWIL4lwPZoUMI15kpGQ2-3" target="gWIL4lwPZoUMI15kpGQ2-31" edge="1">
          <mxGeometry width="50" height="50" relative="1" as="geometry">
            <mxPoint x="170.00428571428532" y="1120.7142857142853" as="sourcePoint" />
            <mxPoint x="100" y="910" as="targetPoint" />
          </mxGeometry>
        </mxCell>
        <mxCell id="gWIL4lwPZoUMI15kpGQ2-38" value="Cus_name" style="ellipse;whiteSpace=wrap;html=1;align=center;" parent="1" vertex="1">
          <mxGeometry x="113" y="900" width="100" height="40" as="geometry" />
        </mxCell>
        <mxCell id="9J1Xk2j35T_Wb_meegYh-33" value="&lt;font style=&quot;font-size: 12px&quot;&gt;1&lt;/font&gt;" style="text;html=1;strokeColor=none;fillColor=none;align=center;verticalAlign=middle;whiteSpace=wrap;rounded=0;" parent="1" vertex="1">
          <mxGeometry x="-420" y="-414" width="40" height="20" as="geometry" />
        </mxCell>
        <mxCell id="gWIL4lwPZoUMI15kpGQ2-39" value="Inquiry_msg" style="ellipse;whiteSpace=wrap;html=1;align=center;" parent="1" vertex="1">
          <mxGeometry x="206" y="860" width="100" height="40" as="geometry" />
        </mxCell>
        <mxCell id="gWIL4lwPZoUMI15kpGQ2-40" value="Total_Charge" style="ellipse;whiteSpace=wrap;html=1;align=center;" parent="1" vertex="1">
          <mxGeometry x="-420" y="550" width="100" height="40" as="geometry" />
        </mxCell>
        <mxCell id="gWIL4lwPZoUMI15kpGQ2-42" value="" style="endArrow=none;html=1;entryX=0.5;entryY=0;entryDx=0;entryDy=0;" parent="1" source="gWIL4lwPZoUMI15kpGQ2-4" target="gWIL4lwPZoUMI15kpGQ2-40" edge="1">
          <mxGeometry width="50" height="50" relative="1" as="geometry">
            <mxPoint x="-192" y="600" as="sourcePoint" />
            <mxPoint x="-142" y="670" as="targetPoint" />
          </mxGeometry>
        </mxCell>
        <mxCell id="gWIL4lwPZoUMI15kpGQ2-44" value="" style="endArrow=none;html=1;entryX=1;entryY=0.5;entryDx=0;entryDy=0;" parent="1" source="gWIL4lwPZoUMI15kpGQ2-4" target="gWIL4lwPZoUMI15kpGQ2-6" edge="1">
          <mxGeometry width="50" height="50" relative="1" as="geometry">
            <mxPoint x="-218.60000000000014" y="540" as="sourcePoint" />
            <mxPoint x="-225" y="620" as="targetPoint" />
          </mxGeometry>
        </mxCell>
        <mxCell id="gWIL4lwPZoUMI15kpGQ2-45" value="" style="endArrow=none;html=1;exitX=0;exitY=0;exitDx=0;exitDy=0;" parent="1" source="gWIL4lwPZoUMI15kpGQ2-8" target="gWIL4lwPZoUMI15kpGQ2-48" edge="1">
          <mxGeometry width="50" height="50" relative="1" as="geometry">
            <mxPoint x="-102.00000000000014" y="860" as="sourcePoint" />
            <mxPoint x="-108.4" y="940" as="targetPoint" />
          </mxGeometry>
        </mxCell>
        <mxCell id="gWIL4lwPZoUMI15kpGQ2-46" value="" style="endArrow=none;html=1;entryX=0.817;entryY=0.121;entryDx=0;entryDy=0;exitX=0.066;exitY=1.007;exitDx=0;exitDy=0;exitPerimeter=0;entryPerimeter=0;" parent="1" source="gWIL4lwPZoUMI15kpGQ2-4" target="gWIL4lwPZoUMI15kpGQ2-7" edge="1">
          <mxGeometry width="50" height="50" relative="1" as="geometry">
            <mxPoint x="-106.60000000000014" y="610" as="sourcePoint" />
            <mxPoint x="-113" y="690" as="targetPoint" />
          </mxGeometry>
        </mxCell>
        <mxCell id="gWIL4lwPZoUMI15kpGQ2-48" value="Unit" style="ellipse;whiteSpace=wrap;html=1;align=center;" parent="1" vertex="1">
          <mxGeometry x="-169" y="1030" width="100" height="40" as="geometry" />
        </mxCell>
        <mxCell id="gWIL4lwPZoUMI15kpGQ2-59" value="Send" style="rhombus;whiteSpace=wrap;html=1;" parent="1" vertex="1">
          <mxGeometry x="266" y="680" width="80" height="80" as="geometry" />
        </mxCell>
        <mxCell id="gWIL4lwPZoUMI15kpGQ2-60" value="" style="endArrow=none;html=1;entryX=0.5;entryY=1;entryDx=0;entryDy=0;exitX=1;exitY=0;exitDx=0;exitDy=0;" parent="1" source="gWIL4lwPZoUMI15kpGQ2-3" target="gWIL4lwPZoUMI15kpGQ2-59" edge="1">
          <mxGeometry width="50" height="50" relative="1" as="geometry">
            <mxPoint x="469.40999999999997" y="880" as="sourcePoint" />
            <mxPoint x="450.5033562180844" y="787.9328650619773" as="targetPoint" />
          </mxGeometry>
        </mxCell>
        <mxCell id="gWIL4lwPZoUMI15kpGQ2-61" value="" style="endArrow=none;html=1;exitX=0.069;exitY=1.017;exitDx=0;exitDy=0;entryX=0.509;entryY=0.025;entryDx=0;entryDy=0;entryPerimeter=0;exitPerimeter=0;" parent="1" source="0ZwmMBX9CB_PH2E3g_sw-1" target="gWIL4lwPZoUMI15kpGQ2-59" edge="1">
          <mxGeometry width="50" height="50" relative="1" as="geometry">
            <mxPoint x="516.5" y="585" as="sourcePoint" />
            <mxPoint x="527" y="680" as="targetPoint" />
          </mxGeometry>
        </mxCell>
        <mxCell id="gWIL4lwPZoUMI15kpGQ2-62" value="&lt;span&gt;AccountNo&lt;/span&gt;" style="ellipse;whiteSpace=wrap;html=1;align=center;" parent="1" vertex="1">
          <mxGeometry x="61" y="1140" width="100" height="40" as="geometry" />
        </mxCell>
        <mxCell id="gWIL4lwPZoUMI15kpGQ2-63" value="" style="endArrow=none;html=1;exitX=0.352;exitY=0.06;exitDx=0;exitDy=0;exitPerimeter=0;" parent="1" source="gWIL4lwPZoUMI15kpGQ2-62" target="gWIL4lwPZoUMI15kpGQ2-8" edge="1">
          <mxGeometry width="50" height="50" relative="1" as="geometry">
            <mxPoint x="-42" y="930" as="sourcePoint" />
            <mxPoint x="-43" y="830" as="targetPoint" />
          </mxGeometry>
        </mxCell>
        <mxCell id="SF_l1mnsRShW8xOKGkz_-6" value="User_Name" style="ellipse;whiteSpace=wrap;html=1;align=center;" parent="1" vertex="1">
          <mxGeometry x="85" y="260" width="110" height="40" as="geometry" />
        </mxCell>
        <mxCell id="gWIL4lwPZoUMI15kpGQ2-64" value="" style="endArrow=none;html=1;exitX=0.5;exitY=0;exitDx=0;exitDy=0;entryX=0.574;entryY=1.043;entryDx=0;entryDy=0;entryPerimeter=0;" parent="1" source="gWIL4lwPZoUMI15kpGQ2-38" target="gWIL4lwPZoUMI15kpGQ2-3" edge="1">
          <mxGeometry width="50" height="50" relative="1" as="geometry">
            <mxPoint x="56" y="1090" as="sourcePoint" />
            <mxPoint x="-94" y="980" as="targetPoint" />
          </mxGeometry>
        </mxCell>
        <mxCell id="gWIL4lwPZoUMI15kpGQ2-65" value="" style="endArrow=none;html=1;entryX=1;entryY=0.75;entryDx=0;entryDy=0;exitX=0;exitY=0;exitDx=0;exitDy=0;" parent="1" source="gWIL4lwPZoUMI15kpGQ2-39" target="gWIL4lwPZoUMI15kpGQ2-3" edge="1">
          <mxGeometry width="50" height="50" relative="1" as="geometry">
            <mxPoint x="40" y="1080" as="sourcePoint" />
            <mxPoint x="80" y="1060" as="targetPoint" />
          </mxGeometry>
        </mxCell>
        <mxCell id="SF_l1mnsRShW8xOKGkz_-7" value="Email" style="ellipse;whiteSpace=wrap;html=1;align=center;" parent="1" vertex="1">
          <mxGeometry x="186" y="231.33" width="104" height="28.67" as="geometry" />
        </mxCell>
        <mxCell id="SF_l1mnsRShW8xOKGkz_-8" value="" style="endArrow=none;html=1;entryX=0.535;entryY=0.976;entryDx=0;entryDy=0;exitX=0;exitY=0;exitDx=0;exitDy=0;entryPerimeter=0;" parent="1" source="R-2MHPUn--8WQAwCCb6K-1" target="SF_l1mnsRShW8xOKGkz_-6" edge="1">
          <mxGeometry width="50" height="50" relative="1" as="geometry">
            <mxPoint x="189" y="270" as="sourcePoint" />
            <mxPoint x="189" y="200" as="targetPoint" />
          </mxGeometry>
        </mxCell>
        <mxCell id="SF_l1mnsRShW8xOKGkz_-9" value="" style="endArrow=none;html=1;entryX=0.391;entryY=0.976;entryDx=0;entryDy=0;exitX=0.5;exitY=0;exitDx=0;exitDy=0;entryPerimeter=0;" parent="1" source="R-2MHPUn--8WQAwCCb6K-1" target="SF_l1mnsRShW8xOKGkz_-7" edge="1">
          <mxGeometry width="50" height="50" relative="1" as="geometry">
            <mxPoint x="291.15" y="320" as="sourcePoint" />
            <mxPoint x="249.99999999999991" y="209.03999999999996" as="targetPoint" />
          </mxGeometry>
        </mxCell>
        <mxCell id="SF_l1mnsRShW8xOKGkz_-12" value="&lt;u&gt;User_ID&lt;/u&gt;" style="ellipse;whiteSpace=wrap;html=1;align=center;" parent="1" vertex="1">
          <mxGeometry x="280.25" y="255" width="89.5" height="30" as="geometry" />
        </mxCell>
        <mxCell id="SF_l1mnsRShW8xOKGkz_-13" value="" style="endArrow=none;html=1;entryX=0.5;entryY=1;entryDx=0;entryDy=0;" parent="1" target="SF_l1mnsRShW8xOKGkz_-12" edge="1">
          <mxGeometry width="50" height="50" relative="1" as="geometry">
            <mxPoint x="310" y="311" as="sourcePoint" />
            <mxPoint x="343" y="290" as="targetPoint" />
          </mxGeometry>
        </mxCell>
        <mxCell id="gWIL4lwPZoUMI15kpGQ2-66" value="Cus_email" style="ellipse;whiteSpace=wrap;html=1;align=center;" parent="1" vertex="1">
          <mxGeometry x="-60" y="810" width="100" height="40" as="geometry" />
        </mxCell>
        <mxCell id="gWIL4lwPZoUMI15kpGQ2-67" value="" style="endArrow=none;html=1;exitX=1;exitY=1;exitDx=0;exitDy=0;entryX=0;entryY=0.5;entryDx=0;entryDy=0;" parent="1" source="gWIL4lwPZoUMI15kpGQ2-66" target="gWIL4lwPZoUMI15kpGQ2-3" edge="1">
          <mxGeometry width="50" height="50" relative="1" as="geometry">
            <mxPoint x="-13.900000000000134" y="1050.96" as="sourcePoint" />
            <mxPoint x="40" y="1015" as="targetPoint" />
          </mxGeometry>
        </mxCell>
        <mxCell id="gWIL4lwPZoUMI15kpGQ2-68" value="Cus_name&amp;nbsp;" style="ellipse;whiteSpace=wrap;html=1;align=center;" parent="1" vertex="1">
          <mxGeometry x="-198" y="1110" width="100" height="40" as="geometry" />
        </mxCell>
        <mxCell id="gWIL4lwPZoUMI15kpGQ2-69" value="Bill_Date" style="ellipse;whiteSpace=wrap;html=1;align=center;" parent="1" vertex="1">
          <mxGeometry x="-120" y="1150" width="100" height="40" as="geometry" />
        </mxCell>
        <mxCell id="Elw5rhbdZ_p3zdOusZqH-25" value="M" style="text;html=1;align=center;verticalAlign=middle;resizable=0;points=[];autosize=1;strokeColor=none;" parent="1" vertex="1">
          <mxGeometry x="356" y="970" width="30" height="20" as="geometry" />
        </mxCell>
        <mxCell id="gWIL4lwPZoUMI15kpGQ2-70" value="" style="endArrow=none;html=1;entryX=0;entryY=0.75;entryDx=0;entryDy=0;" parent="1" source="gWIL4lwPZoUMI15kpGQ2-68" target="gWIL4lwPZoUMI15kpGQ2-8" edge="1">
          <mxGeometry width="50" height="50" relative="1" as="geometry">
            <mxPoint x="-66.00000000000045" y="909.9999999999995" as="sourcePoint" />
            <mxPoint x="-42.999999999999545" y="829.9999999999995" as="targetPoint" />
          </mxGeometry>
        </mxCell>
        <mxCell id="gWIL4lwPZoUMI15kpGQ2-71" value="" style="endArrow=none;html=1;entryX=0;entryY=1;entryDx=0;entryDy=0;exitX=1;exitY=0;exitDx=0;exitDy=0;" parent="1" source="gWIL4lwPZoUMI15kpGQ2-69" target="gWIL4lwPZoUMI15kpGQ2-8" edge="1">
          <mxGeometry width="50" height="50" relative="1" as="geometry">
            <mxPoint x="-211.70889512313488" y="922.9881086090872" as="sourcePoint" />
            <mxPoint x="-68" y="829.9999999999995" as="targetPoint" />
          </mxGeometry>
        </mxCell>
        <mxCell id="gWIL4lwPZoUMI15kpGQ2-72" value="MeterH_ID" style="ellipse;whiteSpace=wrap;html=1;align=center;" parent="1" vertex="1">
          <mxGeometry x="-543" y="400" width="110" height="40" as="geometry" />
        </mxCell>
        <mxCell id="gWIL4lwPZoUMI15kpGQ2-73" value="&lt;u&gt;Bill_id&lt;/u&gt;" style="ellipse;whiteSpace=wrap;html=1;align=center;" parent="1" vertex="1">
          <mxGeometry x="-17" y="1180" width="91" height="40" as="geometry" />
        </mxCell>
        <mxCell id="gWIL4lwPZoUMI15kpGQ2-76" value="N" style="text;html=1;align=center;verticalAlign=middle;resizable=0;points=[];autosize=1;strokeColor=none;" parent="1" vertex="1">
          <mxGeometry x="-255" y="460" width="20" height="20" as="geometry" />
        </mxCell>
        <mxCell id="gWIL4lwPZoUMI15kpGQ2-77" value="1" style="text;html=1;align=center;verticalAlign=middle;resizable=0;points=[];autosize=1;strokeColor=none;" parent="1" vertex="1">
          <mxGeometry x="-154" y="750" width="20" height="20" as="geometry" />
        </mxCell>
        <mxCell id="gWIL4lwPZoUMI15kpGQ2-78" value="M" style="text;html=1;align=center;verticalAlign=middle;resizable=0;points=[];autosize=1;strokeColor=none;" parent="1" vertex="1">
          <mxGeometry x="-174" y="910" width="30" height="20" as="geometry" />
        </mxCell>
        <mxCell id="gWIL4lwPZoUMI15kpGQ2-79" value="1" style="text;html=1;align=center;verticalAlign=middle;resizable=0;points=[];autosize=1;strokeColor=none;" parent="1" vertex="1">
          <mxGeometry x="35" y="680" width="20" height="20" as="geometry" />
        </mxCell>
        <mxCell id="gWIL4lwPZoUMI15kpGQ2-80" value="N" style="text;html=1;align=center;verticalAlign=middle;resizable=0;points=[];autosize=1;strokeColor=none;" parent="1" vertex="1">
          <mxGeometry x="256" y="790" width="20" height="20" as="geometry" />
        </mxCell>
        <mxCell id="gWIL4lwPZoUMI15kpGQ2-81" value="&lt;u&gt;Inquiry_id&lt;/u&gt;" style="ellipse;whiteSpace=wrap;html=1;align=center;" parent="1" vertex="1">
          <mxGeometry x="-45.5" y="910" width="91" height="40" as="geometry" />
        </mxCell>
        <mxCell id="gWIL4lwPZoUMI15kpGQ2-85" value="1" style="text;html=1;align=center;verticalAlign=middle;resizable=0;points=[];autosize=1;strokeColor=none;" parent="1" vertex="1">
          <mxGeometry x="315" y="650" width="20" height="20" as="geometry" />
        </mxCell>
        <mxCell id="gWIL4lwPZoUMI15kpGQ2-86" value="N" style="text;html=1;align=center;verticalAlign=middle;resizable=0;points=[];autosize=1;strokeColor=none;" parent="1" vertex="1">
          <mxGeometry x="65" y="780" width="20" height="20" as="geometry" />
        </mxCell>
        <mxCell id="9NNjLzbF-_VanndHxU1u-2" value="M" style="text;html=1;strokeColor=none;fillColor=none;align=center;verticalAlign=middle;whiteSpace=wrap;rounded=0;" parent="1" vertex="1">
          <mxGeometry x="121" y="130" width="40" height="20" as="geometry" />
        </mxCell>
        <mxCell id="TSOd7XMlYccg_0pHrUIk-8" value="M" style="text;html=1;strokeColor=none;fillColor=none;align=center;verticalAlign=middle;whiteSpace=wrap;rounded=0;" parent="1" vertex="1">
          <mxGeometry x="426.5" y="-70" width="40" height="20" as="geometry" />
        </mxCell>
        <mxCell id="N_99zEwLUs9K9oy2K42W-5" value="1" style="text;html=1;align=center;verticalAlign=middle;resizable=0;points=[];autosize=1;strokeColor=none;" parent="1" vertex="1">
          <mxGeometry x="440" y="770" width="20" height="20" as="geometry" />
        </mxCell>
        <mxCell id="hVpC7EG9TQyVRuL4mwK9-27" value="1" style="text;html=1;align=center;verticalAlign=middle;resizable=0;points=[];autosize=1;strokeColor=none;" parent="1" vertex="1">
          <mxGeometry x="445.5" y="500" width="20" height="20" as="geometry" />
        </mxCell>
        <mxCell id="VS3_uVBxbDkvPHoo9CmW-2" value="AccountNo" style="ellipse;whiteSpace=wrap;html=1;align=center;" parent="1" vertex="1">
          <mxGeometry x="460" y="584.5" width="110" height="40" as="geometry" />
        </mxCell>
        <mxCell id="VS3_uVBxbDkvPHoo9CmW-3" value="" style="endArrow=none;html=1;entryX=0;entryY=0.5;entryDx=0;entryDy=0;exitX=1;exitY=0.5;exitDx=0;exitDy=0;" parent="1" source="0ZwmMBX9CB_PH2E3g_sw-1" target="VS3_uVBxbDkvPHoo9CmW-2" edge="1">
          <mxGeometry width="50" height="50" relative="1" as="geometry">
            <mxPoint x="172.15" y="350.96" as="sourcePoint" />
            <mxPoint x="119.99999999999991" y="339.99999999999994" as="targetPoint" />
          </mxGeometry>
        </mxCell>
        <mxCell id="VS3_uVBxbDkvPHoo9CmW-4" value="PhonenNo" style="ellipse;whiteSpace=wrap;html=1;align=center;" parent="1" vertex="1">
          <mxGeometry x="51" y="340" width="110" height="40" as="geometry" />
        </mxCell>
        <mxCell id="VS3_uVBxbDkvPHoo9CmW-5" value="" style="endArrow=none;html=1;exitX=0.001;exitY=0.867;exitDx=0;exitDy=0;exitPerimeter=0;" parent="1" source="R-2MHPUn--8WQAwCCb6K-1" target="VS3_uVBxbDkvPHoo9CmW-4" edge="1">
          <mxGeometry width="50" height="50" relative="1" as="geometry">
            <mxPoint x="206" y="346.4705882352939" as="sourcePoint" />
            <mxPoint x="130" y="342" as="targetPoint" />
          </mxGeometry>
        </mxCell>
        <mxCell id="VS3_uVBxbDkvPHoo9CmW-6" value="Add" style="rhombus;whiteSpace=wrap;html=1;" parent="1" vertex="1">
          <mxGeometry x="-50" y="300" width="80" height="80" as="geometry" />
        </mxCell>
        <mxCell id="VS3_uVBxbDkvPHoo9CmW-7" value="" style="endArrow=none;html=1;entryX=0.5;entryY=0;entryDx=0;entryDy=0;exitX=0.25;exitY=1;exitDx=0;exitDy=0;" parent="1" source="GwoW-9eUFXNhQJcoqlGR-20" target="VS3_uVBxbDkvPHoo9CmW-6" edge="1">
          <mxGeometry width="50" height="50" relative="1" as="geometry">
            <mxPoint x="-93" y="100" as="sourcePoint" />
            <mxPoint x="10" y="190" as="targetPoint" />
          </mxGeometry>
        </mxCell>
        <mxCell id="VS3_uVBxbDkvPHoo9CmW-8" value="" style="endArrow=none;html=1;entryX=0;entryY=0;entryDx=0;entryDy=0;exitX=0.5;exitY=1;exitDx=0;exitDy=0;" parent="1" source="VS3_uVBxbDkvPHoo9CmW-6" target="0ZwmMBX9CB_PH2E3g_sw-2" edge="1">
          <mxGeometry width="50" height="50" relative="1" as="geometry">
            <mxPoint x="-47" y="378" as="sourcePoint" />
            <mxPoint x="-131" y="640" as="targetPoint" />
          </mxGeometry>
        </mxCell>
        <mxCell id="VS3_uVBxbDkvPHoo9CmW-9" value="M" style="text;html=1;strokeColor=none;fillColor=none;align=center;verticalAlign=middle;whiteSpace=wrap;rounded=0;" parent="1" vertex="1">
          <mxGeometry x="-30" y="211.32999999999998" width="40" height="20" as="geometry" />
        </mxCell>
        <mxCell id="VS3_uVBxbDkvPHoo9CmW-10" value="1" style="text;html=1;strokeColor=none;fillColor=none;align=center;verticalAlign=middle;whiteSpace=wrap;rounded=0;" parent="1" vertex="1">
          <mxGeometry x="-44" y="560" width="40" height="20" as="geometry" />
        </mxCell>
        <mxCell id="VS3_uVBxbDkvPHoo9CmW-20" value="Manage" style="rhombus;whiteSpace=wrap;html=1;" parent="1" vertex="1">
          <mxGeometry x="-324" y="-10" width="80" height="80" as="geometry" />
        </mxCell>
        <mxCell id="VS3_uVBxbDkvPHoo9CmW-21" value="" style="endArrow=none;html=1;entryX=0;entryY=0;entryDx=0;entryDy=0;exitX=0.5;exitY=0;exitDx=0;exitDy=0;" parent="1" source="VS3_uVBxbDkvPHoo9CmW-20" target="K307Wzx5Uyk_XyWvb7QZ-1" edge="1">
          <mxGeometry width="50" height="50" relative="1" as="geometry">
            <mxPoint x="-390" as="sourcePoint" />
            <mxPoint x="-314.4100000000004" y="-310" as="targetPoint" />
          </mxGeometry>
        </mxCell>
        <mxCell id="VS3_uVBxbDkvPHoo9CmW-22" value="" style="endArrow=none;html=1;entryX=0;entryY=0.5;entryDx=0;entryDy=0;exitX=0.5;exitY=1;exitDx=0;exitDy=0;" parent="1" source="VS3_uVBxbDkvPHoo9CmW-20" target="0ZwmMBX9CB_PH2E3g_sw-2" edge="1">
          <mxGeometry width="50" height="50" relative="1" as="geometry">
            <mxPoint x="-841.5" y="350" as="sourcePoint" />
            <mxPoint x="-45.5" y="200" as="targetPoint" />
          </mxGeometry>
        </mxCell>
        <mxCell id="VS3_uVBxbDkvPHoo9CmW-23" value="M" style="text;html=1;strokeColor=none;fillColor=none;align=center;verticalAlign=middle;whiteSpace=wrap;rounded=0;" parent="1" vertex="1">
          <mxGeometry x="266" y="-150" width="40" height="20" as="geometry" />
        </mxCell>
        <mxCell id="VS3_uVBxbDkvPHoo9CmW-25" value="1" style="text;html=1;strokeColor=none;fillColor=none;align=center;verticalAlign=middle;whiteSpace=wrap;rounded=0;" parent="1" vertex="1">
          <mxGeometry x="360" y="490" width="40" height="20" as="geometry" />
        </mxCell>
        <mxCell id="VS3_uVBxbDkvPHoo9CmW-26" value="Cus_name" style="ellipse;whiteSpace=wrap;html=1;align=center;" parent="1" vertex="1">
          <mxGeometry x="386" y="650" width="110" height="40" as="geometry" />
        </mxCell>
        <mxCell id="VS3_uVBxbDkvPHoo9CmW-28" value="" style="endArrow=none;html=1;entryX=0.405;entryY=0.036;entryDx=0;entryDy=0;entryPerimeter=0;" parent="1" source="0ZwmMBX9CB_PH2E3g_sw-1" target="VS3_uVBxbDkvPHoo9CmW-26" edge="1">
          <mxGeometry width="50" height="50" relative="1" as="geometry">
            <mxPoint x="484" y="625.0000000000005" as="sourcePoint" />
            <mxPoint x="545" y="635.0000000000005" as="targetPoint" />
          </mxGeometry>
        </mxCell>
        <mxCell id="VS3_uVBxbDkvPHoo9CmW-30" value="1" style="text;html=1;strokeColor=none;fillColor=none;align=center;verticalAlign=middle;whiteSpace=wrap;rounded=0;" parent="1" vertex="1">
          <mxGeometry x="-263" y="186" width="40" height="20" as="geometry" />
        </mxCell>
        <mxCell id="yicsD27R707Er4HpIFbZ-3" value="Total_amount" style="ellipse;whiteSpace=wrap;html=1;align=center;" parent="1" vertex="1">
          <mxGeometry x="146" y="1090" width="100" height="40" as="geometry" />
        </mxCell>
        <mxCell id="yicsD27R707Er4HpIFbZ-4" value="" style="endArrow=none;html=1;exitX=0;exitY=0.5;exitDx=0;exitDy=0;entryX=0.939;entryY=0.993;entryDx=0;entryDy=0;entryPerimeter=0;" parent="1" source="yicsD27R707Er4HpIFbZ-3" target="gWIL4lwPZoUMI15kpGQ2-8" edge="1">
          <mxGeometry width="50" height="50" relative="1" as="geometry">
            <mxPoint x="216" y="1160" as="sourcePoint" />
            <mxPoint x="101.99999999999977" y="1110" as="targetPoint" />
          </mxGeometry>
        </mxCell>
        <mxCell id="yicsD27R707Er4HpIFbZ-10" value="has" style="rhombus;whiteSpace=wrap;html=1;rotation=0;" parent="1" vertex="1">
          <mxGeometry x="600" y="950" width="80" height="80" as="geometry" />
        </mxCell>
        <mxCell id="yicsD27R707Er4HpIFbZ-11" value="" style="endArrow=none;html=1;exitX=1;exitY=0.5;exitDx=0;exitDy=0;entryX=0;entryY=0.5;entryDx=0;entryDy=0;" parent="1" source="gWIL4lwPZoUMI15kpGQ2-8" target="yicsD27R707Er4HpIFbZ-10" edge="1">
          <mxGeometry width="50" height="50" relative="1" as="geometry">
            <mxPoint x="197.5" y="1120" as="sourcePoint" />
            <mxPoint x="624" y="860" as="targetPoint" />
          </mxGeometry>
        </mxCell>
        <mxCell id="yicsD27R707Er4HpIFbZ-12" value="" style="endArrow=none;html=1;entryX=0.75;entryY=1;entryDx=0;entryDy=0;exitX=0.5;exitY=0;exitDx=0;exitDy=0;" parent="1" source="yicsD27R707Er4HpIFbZ-10" target="K307Wzx5Uyk_XyWvb7QZ-1" edge="1">
          <mxGeometry width="50" height="50" relative="1" as="geometry">
            <mxPoint x="690" y="900" as="sourcePoint" />
            <mxPoint x="816" y="770" as="targetPoint" />
          </mxGeometry>
        </mxCell>
        <mxCell id="yicsD27R707Er4HpIFbZ-14" value="M" style="text;html=1;align=center;verticalAlign=middle;resizable=0;points=[];autosize=1;strokeColor=none;" parent="1" vertex="1">
          <mxGeometry x="540" y="1010" width="30" height="20" as="geometry" />
        </mxCell>
        <mxCell id="yicsD27R707Er4HpIFbZ-15" value="1" style="text;html=1;align=center;verticalAlign=middle;resizable=0;points=[];autosize=1;strokeColor=none;" parent="1" vertex="1">
          <mxGeometry x="598" y="450" width="20" height="20" as="geometry" />
        </mxCell>
        <mxCell id="yicsD27R707Er4HpIFbZ-18" value="manage" style="rhombus;whiteSpace=wrap;html=1;" parent="1" vertex="1">
          <mxGeometry x="161" y="644.5" width="80" height="80" as="geometry" />
        </mxCell>
        <mxCell id="yicsD27R707Er4HpIFbZ-19" value="" style="endArrow=none;html=1;entryX=0.882;entryY=0.993;entryDx=0;entryDy=0;entryPerimeter=0;exitX=0;exitY=0.5;exitDx=0;exitDy=0;" parent="1" source="yicsD27R707Er4HpIFbZ-18" target="0ZwmMBX9CB_PH2E3g_sw-2" edge="1">
          <mxGeometry width="50" height="50" relative="1" as="geometry">
            <mxPoint x="30" y="710" as="sourcePoint" />
            <mxPoint x="55.75999999999999" y="650" as="targetPoint" />
          </mxGeometry>
        </mxCell>
        <mxCell id="yicsD27R707Er4HpIFbZ-20" value="" style="endArrow=none;html=1;entryX=0;entryY=0.5;entryDx=0;entryDy=0;exitX=1;exitY=0.5;exitDx=0;exitDy=0;" parent="1" source="yicsD27R707Er4HpIFbZ-18" target="0ZwmMBX9CB_PH2E3g_sw-1" edge="1">
          <mxGeometry width="50" height="50" relative="1" as="geometry">
            <mxPoint x="213" y="629.89" as="sourcePoint" />
            <mxPoint x="178.44000000000005" y="590.1100000000002" as="targetPoint" />
          </mxGeometry>
        </mxCell>
        <mxCell id="yicsD27R707Er4HpIFbZ-21" value="1" style="text;html=1;align=center;verticalAlign=middle;resizable=0;points=[];autosize=1;strokeColor=none;" parent="1" vertex="1">
          <mxGeometry x="121" y="660" width="20" height="20" as="geometry" />
        </mxCell>
        <mxCell id="yicsD27R707Er4HpIFbZ-22" value="N" style="text;html=1;align=center;verticalAlign=middle;resizable=0;points=[];autosize=1;strokeColor=none;" parent="1" vertex="1">
          <mxGeometry x="251" y="615" width="20" height="20" as="geometry" />
        </mxCell>
        <mxCell id="yicsD27R707Er4HpIFbZ-24" value="1" style="text;html=1;strokeColor=none;fillColor=none;align=center;verticalAlign=middle;whiteSpace=wrap;rounded=0;" parent="1" vertex="1">
          <mxGeometry y="510" width="40" height="20" as="geometry" />
        </mxCell>
      </root>
    </mxGraphModel>
  </diagram>
  <diagram id="q7SCfpRWAa4DW95Lb2Gz" name="Page-2">
    <mxGraphModel dx="332" dy="2083" grid="1" gridSize="10" guides="1" tooltips="1" connect="1" arrows="1" fold="1" page="1" pageScale="1" pageWidth="1100" pageHeight="850" math="0" shadow="0">
      <root>
        <mxCell id="0" />
        <mxCell id="1" parent="0" />
        <mxCell id="BHZQhZg037N1I-XDxDPh-3" value="Administrator" style="swimlane;fontStyle=1;align=center;verticalAlign=top;childLayout=stackLayout;horizontal=1;startSize=26;horizontalStack=0;resizeParent=1;resizeParentMax=0;resizeLast=0;collapsible=1;marginBottom=0;" parent="1" vertex="1">
          <mxGeometry x="480" y="210" width="150" height="120" as="geometry" />
        </mxCell>
        <mxCell id="BHZQhZg037N1I-XDxDPh-4" value="- admin_name: string" style="text;strokeColor=none;fillColor=none;align=left;verticalAlign=top;spacingLeft=4;spacingRight=4;overflow=hidden;rotatable=0;points=[[0,0.5],[1,0.5]];portConstraint=eastwest;" parent="BHZQhZg037N1I-XDxDPh-3" vertex="1">
          <mxGeometry y="26" width="150" height="44" as="geometry" />
        </mxCell>
        <mxCell id="BHZQhZg037N1I-XDxDPh-5" value="" style="line;strokeWidth=1;fillColor=none;align=left;verticalAlign=middle;spacingTop=-1;spacingLeft=3;spacingRight=3;rotatable=0;labelPosition=right;points=[];portConstraint=eastwest;" parent="BHZQhZg037N1I-XDxDPh-3" vertex="1">
          <mxGeometry y="70" width="150" height="8" as="geometry" />
        </mxCell>
        <mxCell id="BHZQhZg037N1I-XDxDPh-6" value="+ viewFeedback()" style="text;strokeColor=none;fillColor=none;align=left;verticalAlign=top;spacingLeft=4;spacingRight=4;overflow=hidden;rotatable=0;points=[[0,0.5],[1,0.5]];portConstraint=eastwest;" parent="BHZQhZg037N1I-XDxDPh-3" vertex="1">
          <mxGeometry y="78" width="150" height="42" as="geometry" />
        </mxCell>
        <mxCell id="BHZQhZg037N1I-XDxDPh-7" value="" style="endArrow=block;endSize=16;endFill=0;html=1;exitX=0.617;exitY=-0.005;exitDx=0;exitDy=0;exitPerimeter=0;" parent="1" source="BHZQhZg037N1I-XDxDPh-40" edge="1">
          <mxGeometry width="160" relative="1" as="geometry">
            <mxPoint x="170" y="284.66" as="sourcePoint" />
            <mxPoint x="294" y="131" as="targetPoint" />
            <Array as="points">
              <mxPoint x="116" y="180" />
              <mxPoint x="294" y="180" />
            </Array>
          </mxGeometry>
        </mxCell>
        <mxCell id="BHZQhZg037N1I-XDxDPh-13" value="" style="endArrow=block;endSize=16;endFill=0;html=1;entryX=0.641;entryY=1.005;entryDx=0;entryDy=0;entryPerimeter=0;exitX=0.664;exitY=0.002;exitDx=0;exitDy=0;exitPerimeter=0;" parent="1" source="BHZQhZg037N1I-XDxDPh-3" target="BHZQhZg037N1I-XDxDPh-17" edge="1">
          <mxGeometry x="0.125" y="100" width="160" relative="1" as="geometry">
            <mxPoint x="574" y="210" as="sourcePoint" />
            <mxPoint x="339.9200000000001" y="161.04999999999995" as="targetPoint" />
            <mxPoint as="offset" />
            <Array as="points">
              <mxPoint x="580" y="190" />
              <mxPoint x="382" y="190" />
            </Array>
          </mxGeometry>
        </mxCell>
        <mxCell id="BHZQhZg037N1I-XDxDPh-14" value="User" style="swimlane;fontStyle=1;align=center;verticalAlign=top;childLayout=stackLayout;horizontal=1;startSize=26;horizontalStack=0;resizeParent=1;resizeParentMax=0;resizeLast=0;collapsible=1;marginBottom=0;" parent="1" vertex="1">
          <mxGeometry x="260" y="10" width="190" height="120" as="geometry" />
        </mxCell>
        <mxCell id="BHZQhZg037N1I-XDxDPh-15" value="#user_id: int&#xa;#user_pass: string" style="text;strokeColor=none;fillColor=none;align=left;verticalAlign=top;spacingLeft=4;spacingRight=4;overflow=hidden;rotatable=0;points=[[0,0.5],[1,0.5]];portConstraint=eastwest;" parent="BHZQhZg037N1I-XDxDPh-14" vertex="1">
          <mxGeometry y="26" width="190" height="44" as="geometry" />
        </mxCell>
        <mxCell id="BHZQhZg037N1I-XDxDPh-16" value="" style="line;strokeWidth=1;fillColor=none;align=left;verticalAlign=middle;spacingTop=-1;spacingLeft=3;spacingRight=3;rotatable=0;labelPosition=right;points=[];portConstraint=eastwest;" parent="BHZQhZg037N1I-XDxDPh-14" vertex="1">
          <mxGeometry y="70" width="190" height="8" as="geometry" />
        </mxCell>
        <mxCell id="BHZQhZg037N1I-XDxDPh-17" value="+ login()&#xa;" style="text;strokeColor=none;fillColor=none;align=left;verticalAlign=top;spacingLeft=4;spacingRight=4;overflow=hidden;rotatable=0;points=[[0,0.5],[1,0.5]];portConstraint=eastwest;" parent="BHZQhZg037N1I-XDxDPh-14" vertex="1">
          <mxGeometry y="78" width="190" height="42" as="geometry" />
        </mxCell>
        <mxCell id="BHZQhZg037N1I-XDxDPh-18" value="" style="endArrow=none;html=1;edgeStyle=orthogonalEdgeStyle;exitX=1;exitY=0.5;exitDx=0;exitDy=0;entryX=-0.002;entryY=0.655;entryDx=0;entryDy=0;entryPerimeter=0;" parent="1" source="BHZQhZg037N1I-XDxDPh-67" target="BHZQhZg037N1I-XDxDPh-71" edge="1">
          <mxGeometry relative="1" as="geometry">
            <mxPoint x="330" y="370" as="sourcePoint" />
            <mxPoint x="370" y="498" as="targetPoint" />
          </mxGeometry>
        </mxCell>
        <mxCell id="BHZQhZg037N1I-XDxDPh-19" value="1" style="edgeLabel;resizable=0;html=1;align=left;verticalAlign=bottom;" parent="BHZQhZg037N1I-XDxDPh-18" connectable="0" vertex="1">
          <mxGeometry x="-1" relative="1" as="geometry" />
        </mxCell>
        <mxCell id="BHZQhZg037N1I-XDxDPh-20" value="1" style="edgeLabel;resizable=0;html=1;align=right;verticalAlign=bottom;" parent="BHZQhZg037N1I-XDxDPh-18" connectable="0" vertex="1">
          <mxGeometry x="1" relative="1" as="geometry" />
        </mxCell>
        <mxCell id="BHZQhZg037N1I-XDxDPh-21" value="Report" style="swimlane;fontStyle=1;align=center;verticalAlign=top;childLayout=stackLayout;horizontal=1;startSize=26;horizontalStack=0;resizeParent=1;resizeParentMax=0;resizeLast=0;collapsible=1;marginBottom=0;" parent="1" vertex="1">
          <mxGeometry x="290" y="700" width="190" height="158" as="geometry" />
        </mxCell>
        <mxCell id="BHZQhZg037N1I-XDxDPh-22" value="- reportId: int&#xa;- reportName: string" style="text;strokeColor=none;fillColor=none;align=left;verticalAlign=top;spacingLeft=4;spacingRight=4;overflow=hidden;rotatable=0;points=[[0,0.5],[1,0.5]];portConstraint=eastwest;" parent="BHZQhZg037N1I-XDxDPh-21" vertex="1">
          <mxGeometry y="26" width="190" height="54" as="geometry" />
        </mxCell>
        <mxCell id="BHZQhZg037N1I-XDxDPh-23" value="" style="line;strokeWidth=1;fillColor=none;align=left;verticalAlign=middle;spacingTop=-1;spacingLeft=3;spacingRight=3;rotatable=0;labelPosition=right;points=[];portConstraint=eastwest;" parent="BHZQhZg037N1I-XDxDPh-21" vertex="1">
          <mxGeometry y="80" width="190" height="8" as="geometry" />
        </mxCell>
        <mxCell id="BHZQhZg037N1I-XDxDPh-24" value="+ genarateReport()&#xa;+ displayReportDetails()" style="text;strokeColor=none;fillColor=none;align=left;verticalAlign=top;spacingLeft=4;spacingRight=4;overflow=hidden;rotatable=0;points=[[0,0.5],[1,0.5]];portConstraint=eastwest;" parent="BHZQhZg037N1I-XDxDPh-21" vertex="1">
          <mxGeometry y="88" width="190" height="70" as="geometry" />
        </mxCell>
        <mxCell id="BHZQhZg037N1I-XDxDPh-25" value="" style="endArrow=none;html=1;edgeStyle=orthogonalEdgeStyle;exitX=0.781;exitY=0.005;exitDx=0;exitDy=0;exitPerimeter=0;entryX=0.453;entryY=1;entryDx=0;entryDy=0;entryPerimeter=0;" parent="1" source="BHZQhZg037N1I-XDxDPh-3" target="BHZQhZg037N1I-XDxDPh-65" edge="1">
          <mxGeometry relative="1" as="geometry">
            <mxPoint x="260" y="-80" as="sourcePoint" />
            <mxPoint x="636" y="90" as="targetPoint" />
          </mxGeometry>
        </mxCell>
        <mxCell id="BHZQhZg037N1I-XDxDPh-26" value="1" style="edgeLabel;resizable=0;html=1;align=left;verticalAlign=bottom;" parent="BHZQhZg037N1I-XDxDPh-25" connectable="0" vertex="1">
          <mxGeometry x="-1" relative="1" as="geometry" />
        </mxCell>
        <mxCell id="BHZQhZg037N1I-XDxDPh-27" value="1..*" style="edgeLabel;resizable=0;html=1;align=right;verticalAlign=bottom;" parent="BHZQhZg037N1I-XDxDPh-25" connectable="0" vertex="1">
          <mxGeometry x="1" relative="1" as="geometry">
            <mxPoint x="-6.000000000000001" y="20.04" as="offset" />
          </mxGeometry>
        </mxCell>
        <mxCell id="BHZQhZg037N1I-XDxDPh-28" value="" style="endArrow=none;html=1;edgeStyle=orthogonalEdgeStyle;entryX=1.004;entryY=0.794;entryDx=0;entryDy=0;entryPerimeter=0;" parent="1" target="T3t25tu2Qx5f0jsyrN8_-3" edge="1">
          <mxGeometry relative="1" as="geometry">
            <mxPoint x="260" y="52" as="sourcePoint" />
            <mxPoint x="219.36" y="52.615999999999985" as="targetPoint" />
          </mxGeometry>
        </mxCell>
        <mxCell id="BHZQhZg037N1I-XDxDPh-29" value="1" style="edgeLabel;resizable=0;html=1;align=left;verticalAlign=bottom;" parent="BHZQhZg037N1I-XDxDPh-28" connectable="0" vertex="1">
          <mxGeometry x="-1" relative="1" as="geometry">
            <mxPoint x="-10" as="offset" />
          </mxGeometry>
        </mxCell>
        <mxCell id="BHZQhZg037N1I-XDxDPh-30" value="1..*" style="edgeLabel;resizable=0;html=1;align=right;verticalAlign=bottom;" parent="BHZQhZg037N1I-XDxDPh-28" connectable="0" vertex="1">
          <mxGeometry x="1" relative="1" as="geometry">
            <mxPoint x="20" as="offset" />
          </mxGeometry>
        </mxCell>
        <mxCell id="BHZQhZg037N1I-XDxDPh-31" value="" style="endArrow=none;html=1;edgeStyle=orthogonalEdgeStyle;entryX=0.003;entryY=0.646;entryDx=0;entryDy=0;entryPerimeter=0;exitX=1.008;exitY=0.551;exitDx=0;exitDy=0;exitPerimeter=0;" parent="1" source="BHZQhZg037N1I-XDxDPh-71" target="BHZQhZg037N1I-XDxDPh-75" edge="1">
          <mxGeometry relative="1" as="geometry">
            <mxPoint x="580.1290401335685" y="491" as="sourcePoint" />
            <mxPoint x="399.6200000000001" y="507.9200000000001" as="targetPoint" />
          </mxGeometry>
        </mxCell>
        <mxCell id="BHZQhZg037N1I-XDxDPh-32" value="1" style="edgeLabel;resizable=0;html=1;align=left;verticalAlign=bottom;" parent="BHZQhZg037N1I-XDxDPh-31" connectable="0" vertex="1">
          <mxGeometry x="-1" relative="1" as="geometry" />
        </mxCell>
        <mxCell id="BHZQhZg037N1I-XDxDPh-33" value="1" style="edgeLabel;resizable=0;html=1;align=right;verticalAlign=bottom;" parent="BHZQhZg037N1I-XDxDPh-31" connectable="0" vertex="1">
          <mxGeometry x="1" relative="1" as="geometry">
            <mxPoint x="-10.58" as="offset" />
          </mxGeometry>
        </mxCell>
        <mxCell id="BHZQhZg037N1I-XDxDPh-34" value="" style="endArrow=none;html=1;edgeStyle=orthogonalEdgeStyle;exitX=0.46;exitY=0.996;exitDx=0;exitDy=0;entryX=0.107;entryY=-0.002;entryDx=0;entryDy=0;entryPerimeter=0;exitPerimeter=0;" parent="1" source="BHZQhZg037N1I-XDxDPh-43" target="BHZQhZg037N1I-XDxDPh-66" edge="1">
          <mxGeometry relative="1" as="geometry">
            <mxPoint x="320" y="508" as="sourcePoint" />
            <mxPoint x="399.6200000000001" y="507.91999999999985" as="targetPoint" />
            <Array as="points">
              <mxPoint x="114" y="400" />
              <mxPoint x="140" y="400" />
            </Array>
          </mxGeometry>
        </mxCell>
        <mxCell id="BHZQhZg037N1I-XDxDPh-35" value="1" style="edgeLabel;resizable=0;html=1;align=left;verticalAlign=bottom;" parent="BHZQhZg037N1I-XDxDPh-34" connectable="0" vertex="1">
          <mxGeometry x="-1" relative="1" as="geometry">
            <mxPoint y="20.25" as="offset" />
          </mxGeometry>
        </mxCell>
        <mxCell id="BHZQhZg037N1I-XDxDPh-36" value="1..*" style="edgeLabel;resizable=0;html=1;align=right;verticalAlign=bottom;" parent="BHZQhZg037N1I-XDxDPh-34" connectable="0" vertex="1">
          <mxGeometry x="1" relative="1" as="geometry" />
        </mxCell>
        <mxCell id="BHZQhZg037N1I-XDxDPh-37" value="" style="endArrow=none;html=1;edgeStyle=orthogonalEdgeStyle;exitX=1.002;exitY=0.79;exitDx=0;exitDy=0;entryX=0.25;entryY=0;entryDx=0;entryDy=0;exitPerimeter=0;" parent="1" source="BHZQhZg037N1I-XDxDPh-43" target="BHZQhZg037N1I-XDxDPh-70" edge="1">
          <mxGeometry relative="1" as="geometry">
            <mxPoint x="124.40000000000009" y="379.7519999999997" as="sourcePoint" />
            <mxPoint x="150.33000000000004" y="439.624" as="targetPoint" />
            <Array as="points">
              <mxPoint x="270" y="357" />
              <mxPoint x="270" y="410" />
              <mxPoint x="438" y="410" />
              <mxPoint x="438" y="430" />
            </Array>
          </mxGeometry>
        </mxCell>
        <mxCell id="BHZQhZg037N1I-XDxDPh-38" value="1" style="edgeLabel;resizable=0;html=1;align=left;verticalAlign=bottom;" parent="BHZQhZg037N1I-XDxDPh-37" connectable="0" vertex="1">
          <mxGeometry x="-1" relative="1" as="geometry">
            <mxPoint y="20.25" as="offset" />
          </mxGeometry>
        </mxCell>
        <mxCell id="BHZQhZg037N1I-XDxDPh-39" value="1..*" style="edgeLabel;resizable=0;html=1;align=right;verticalAlign=bottom;" parent="BHZQhZg037N1I-XDxDPh-37" connectable="0" vertex="1">
          <mxGeometry x="1" relative="1" as="geometry" />
        </mxCell>
        <mxCell id="BHZQhZg037N1I-XDxDPh-40" value="Customer" style="swimlane;fontStyle=1;align=center;verticalAlign=top;childLayout=stackLayout;horizontal=1;startSize=26;horizontalStack=0;resizeParent=1;resizeParentMax=0;resizeLast=0;collapsible=1;marginBottom=0;" parent="1" vertex="1">
          <mxGeometry x="30" y="210" width="140" height="160" as="geometry" />
        </mxCell>
        <mxCell id="BHZQhZg037N1I-XDxDPh-41" value="- guest_name : string&#xa;- guest_mobile: int&#xa;- guest_email: string&#xa;- guest_address: string&#xa;" style="text;strokeColor=none;fillColor=none;align=left;verticalAlign=top;spacingLeft=4;spacingRight=4;overflow=hidden;rotatable=0;points=[[0,0.5],[1,0.5]];portConstraint=eastwest;" parent="BHZQhZg037N1I-XDxDPh-40" vertex="1">
          <mxGeometry y="26" width="140" height="64" as="geometry" />
        </mxCell>
        <mxCell id="BHZQhZg037N1I-XDxDPh-42" value="" style="line;strokeWidth=1;fillColor=none;align=left;verticalAlign=middle;spacingTop=-1;spacingLeft=3;spacingRight=3;rotatable=0;labelPosition=right;points=[];portConstraint=eastwest;" parent="BHZQhZg037N1I-XDxDPh-40" vertex="1">
          <mxGeometry y="90" width="140" height="8" as="geometry" />
        </mxCell>
        <mxCell id="BHZQhZg037N1I-XDxDPh-43" value="+ registration()&#xa;+ modifyCustomer()&#xa;+ deleteCustomer()&#xa;" style="text;strokeColor=none;fillColor=none;align=left;verticalAlign=top;spacingLeft=4;spacingRight=4;overflow=hidden;rotatable=0;points=[[0,0.5],[1,0.5]];portConstraint=eastwest;" parent="BHZQhZg037N1I-XDxDPh-40" vertex="1">
          <mxGeometry y="98" width="140" height="62" as="geometry" />
        </mxCell>
        <mxCell id="BHZQhZg037N1I-XDxDPh-44" value="" style="endArrow=none;html=1;edgeStyle=orthogonalEdgeStyle;exitX=0.204;exitY=1.002;exitDx=0;exitDy=0;exitPerimeter=0;entryX=0.103;entryY=-0.004;entryDx=0;entryDy=0;entryPerimeter=0;" parent="1" source="BHZQhZg037N1I-XDxDPh-43" target="BHZQhZg037N1I-XDxDPh-47" edge="1">
          <mxGeometry relative="1" as="geometry">
            <mxPoint x="80" y="549" as="sourcePoint" />
            <mxPoint x="59" y="600" as="targetPoint" />
          </mxGeometry>
        </mxCell>
        <mxCell id="BHZQhZg037N1I-XDxDPh-45" value="parent" style="edgeLabel;resizable=0;html=1;align=left;verticalAlign=bottom;" parent="BHZQhZg037N1I-XDxDPh-44" connectable="0" vertex="1">
          <mxGeometry x="-1" relative="1" as="geometry" />
        </mxCell>
        <mxCell id="BHZQhZg037N1I-XDxDPh-46" value="1..*" style="edgeLabel;resizable=0;html=1;align=right;verticalAlign=bottom;" parent="BHZQhZg037N1I-XDxDPh-44" connectable="0" vertex="1">
          <mxGeometry x="1" relative="1" as="geometry" />
        </mxCell>
        <mxCell id="BHZQhZg037N1I-XDxDPh-47" value="Package" style="swimlane;fontStyle=1;align=center;verticalAlign=top;childLayout=stackLayout;horizontal=1;startSize=26;horizontalStack=0;resizeParent=1;resizeParentMax=0;resizeLast=0;collapsible=1;marginBottom=0;" parent="1" vertex="1">
          <mxGeometry x="40" y="700" width="190" height="150" as="geometry" />
        </mxCell>
        <mxCell id="BHZQhZg037N1I-XDxDPh-48" value="- packageID: string&#xa;- packageName: string " style="text;strokeColor=none;fillColor=none;align=left;verticalAlign=top;spacingLeft=4;spacingRight=4;overflow=hidden;rotatable=0;points=[[0,0.5],[1,0.5]];portConstraint=eastwest;" parent="BHZQhZg037N1I-XDxDPh-47" vertex="1">
          <mxGeometry y="26" width="190" height="46" as="geometry" />
        </mxCell>
        <mxCell id="BHZQhZg037N1I-XDxDPh-49" value="" style="line;strokeWidth=1;fillColor=none;align=left;verticalAlign=middle;spacingTop=-1;spacingLeft=3;spacingRight=3;rotatable=0;labelPosition=right;points=[];portConstraint=eastwest;" parent="BHZQhZg037N1I-XDxDPh-47" vertex="1">
          <mxGeometry y="72" width="190" height="8" as="geometry" />
        </mxCell>
        <mxCell id="BHZQhZg037N1I-XDxDPh-50" value="+ addPackage()&#xa;+ modifyPackage()&#xa;+ deletePackage()&#xa;+ searchPackage()&#xa;" style="text;strokeColor=none;fillColor=none;align=left;verticalAlign=top;spacingLeft=4;spacingRight=4;overflow=hidden;rotatable=0;points=[[0,0.5],[1,0.5]];portConstraint=eastwest;" parent="BHZQhZg037N1I-XDxDPh-47" vertex="1">
          <mxGeometry y="80" width="190" height="70" as="geometry" />
        </mxCell>
        <mxCell id="BHZQhZg037N1I-XDxDPh-51" value="1" style="edgeLabel;resizable=0;html=1;align=left;verticalAlign=bottom;" parent="1" connectable="0" vertex="1">
          <mxGeometry x="49.99999999999998" y="390.00199999999995" as="geometry" />
        </mxCell>
        <mxCell id="BHZQhZg037N1I-XDxDPh-52" value="Service" style="swimlane;fontStyle=1;align=center;verticalAlign=top;childLayout=stackLayout;horizontal=1;startSize=26;horizontalStack=0;resizeParent=1;resizeParentMax=0;resizeLast=0;collapsible=1;marginBottom=0;" parent="1" vertex="1">
          <mxGeometry x="560" y="690" width="160" height="158" as="geometry" />
        </mxCell>
        <mxCell id="BHZQhZg037N1I-XDxDPh-53" value="- serviceID: int&#xa;- foodType: string&#xa;- foodPrice: float&#xa;- decoType: string&#xa;- decoPrice: float" style="text;strokeColor=none;fillColor=none;align=left;verticalAlign=top;spacingLeft=4;spacingRight=4;overflow=hidden;rotatable=0;points=[[0,0.5],[1,0.5]];portConstraint=eastwest;" parent="BHZQhZg037N1I-XDxDPh-52" vertex="1">
          <mxGeometry y="26" width="160" height="74" as="geometry" />
        </mxCell>
        <mxCell id="BHZQhZg037N1I-XDxDPh-54" value="" style="line;strokeWidth=1;fillColor=none;align=left;verticalAlign=middle;spacingTop=-1;spacingLeft=3;spacingRight=3;rotatable=0;labelPosition=right;points=[];portConstraint=eastwest;" parent="BHZQhZg037N1I-XDxDPh-52" vertex="1">
          <mxGeometry y="100" width="160" height="8" as="geometry" />
        </mxCell>
        <mxCell id="BHZQhZg037N1I-XDxDPh-55" value="+ displayServiceDetails()&#xa;+ displayFoodPrice()&#xa;+ displayDecoPrice()" style="text;strokeColor=none;fillColor=none;align=left;verticalAlign=top;spacingLeft=4;spacingRight=4;overflow=hidden;rotatable=0;points=[[0,0.5],[1,0.5]];portConstraint=eastwest;" parent="BHZQhZg037N1I-XDxDPh-52" vertex="1">
          <mxGeometry y="108" width="160" height="50" as="geometry" />
        </mxCell>
        <mxCell id="BHZQhZg037N1I-XDxDPh-56" value="" style="endArrow=none;html=1;edgeStyle=orthogonalEdgeStyle;exitX=0;exitY=0.5;exitDx=0;exitDy=0;entryX=0.242;entryY=1;entryDx=0;entryDy=0;entryPerimeter=0;" parent="1" source="BHZQhZg037N1I-XDxDPh-43" target="BHZQhZg037N1I-XDxDPh-55" edge="1">
          <mxGeometry relative="1" as="geometry">
            <mxPoint x="68.55999999999995" y="380.12400000000025" as="sourcePoint" />
            <mxPoint x="180" y="890" as="targetPoint" />
            <Array as="points">
              <mxPoint x="20" y="339" />
              <mxPoint x="20" y="890" />
              <mxPoint x="599" y="890" />
              <mxPoint x="599" y="848" />
            </Array>
          </mxGeometry>
        </mxCell>
        <mxCell id="BHZQhZg037N1I-XDxDPh-57" value="1..*" style="edgeLabel;resizable=0;html=1;align=right;verticalAlign=bottom;" parent="BHZQhZg037N1I-XDxDPh-56" connectable="0" vertex="1">
          <mxGeometry x="1" relative="1" as="geometry">
            <mxPoint x="-9.36" y="15.81" as="offset" />
          </mxGeometry>
        </mxCell>
        <mxCell id="BHZQhZg037N1I-XDxDPh-58" value="1" style="edgeLabel;resizable=0;html=1;align=left;verticalAlign=bottom;" parent="1" connectable="0" vertex="1">
          <mxGeometry x="59.99999999999998" y="400.00199999999995" as="geometry">
            <mxPoint x="-50" y="-61" as="offset" />
          </mxGeometry>
        </mxCell>
        <mxCell id="BHZQhZg037N1I-XDxDPh-62" value="Hall" style="swimlane;fontStyle=1;align=center;verticalAlign=top;childLayout=stackLayout;horizontal=1;startSize=26;horizontalStack=0;resizeParent=1;resizeParentMax=0;resizeLast=0;collapsible=1;marginBottom=0;" parent="1" vertex="1">
          <mxGeometry x="550" y="-20" width="190" height="170" as="geometry" />
        </mxCell>
        <mxCell id="BHZQhZg037N1I-XDxDPh-63" value="- hall_id: int&#xa;- hall_price: float&#xa;- hall_capacity: int&#xa;- hall_type: string " style="text;strokeColor=none;fillColor=none;align=left;verticalAlign=top;spacingLeft=4;spacingRight=4;overflow=hidden;rotatable=0;points=[[0,0.5],[1,0.5]];portConstraint=eastwest;" parent="BHZQhZg037N1I-XDxDPh-62" vertex="1">
          <mxGeometry y="26" width="190" height="64" as="geometry" />
        </mxCell>
        <mxCell id="BHZQhZg037N1I-XDxDPh-64" value="" style="line;strokeWidth=1;fillColor=none;align=left;verticalAlign=middle;spacingTop=-1;spacingLeft=3;spacingRight=3;rotatable=0;labelPosition=right;points=[];portConstraint=eastwest;" parent="BHZQhZg037N1I-XDxDPh-62" vertex="1">
          <mxGeometry y="90" width="190" height="8" as="geometry" />
        </mxCell>
        <mxCell id="BHZQhZg037N1I-XDxDPh-65" value="+displayHallDetails()&#xa;+ addHall()&#xa;+ modifyHall()&#xa;+ deleteHall()" style="text;strokeColor=none;fillColor=none;align=left;verticalAlign=top;spacingLeft=4;spacingRight=4;overflow=hidden;rotatable=0;points=[[0,0.5],[1,0.5]];portConstraint=eastwest;" parent="BHZQhZg037N1I-XDxDPh-62" vertex="1">
          <mxGeometry y="98" width="190" height="72" as="geometry" />
        </mxCell>
        <mxCell id="BHZQhZg037N1I-XDxDPh-66" value="Reservation" style="swimlane;fontStyle=1;align=center;verticalAlign=top;childLayout=stackLayout;horizontal=1;startSize=26;horizontalStack=0;resizeParent=1;resizeParentMax=0;resizeLast=0;collapsible=1;marginBottom=0;" parent="1" vertex="1">
          <mxGeometry x="110" y="430" width="190" height="188" as="geometry" />
        </mxCell>
        <mxCell id="BHZQhZg037N1I-XDxDPh-67" value="- reservation_id: int&#xa;- checkin: date&#xa;- checkout: date&#xa;- reservation_date: date&#xa;- venue: string&#xa;" style="text;strokeColor=none;fillColor=none;align=left;verticalAlign=top;spacingLeft=4;spacingRight=4;overflow=hidden;rotatable=0;points=[[0,0.5],[1,0.5]];portConstraint=eastwest;" parent="BHZQhZg037N1I-XDxDPh-66" vertex="1">
          <mxGeometry y="26" width="190" height="84" as="geometry" />
        </mxCell>
        <mxCell id="BHZQhZg037N1I-XDxDPh-68" value="" style="line;strokeWidth=1;fillColor=none;align=left;verticalAlign=middle;spacingTop=-1;spacingLeft=3;spacingRight=3;rotatable=0;labelPosition=right;points=[];portConstraint=eastwest;" parent="BHZQhZg037N1I-XDxDPh-66" vertex="1">
          <mxGeometry y="110" width="190" height="8" as="geometry" />
        </mxCell>
        <mxCell id="BHZQhZg037N1I-XDxDPh-69" value="+ checkavaliability()&#xa;+ addReservation()&#xa;+ modifyReservaton()&#xa;+ deleteReservation()&#xa;" style="text;strokeColor=none;fillColor=none;align=left;verticalAlign=top;spacingLeft=4;spacingRight=4;overflow=hidden;rotatable=0;points=[[0,0.5],[1,0.5]];portConstraint=eastwest;" parent="BHZQhZg037N1I-XDxDPh-66" vertex="1">
          <mxGeometry y="118" width="190" height="70" as="geometry" />
        </mxCell>
        <mxCell id="BHZQhZg037N1I-XDxDPh-70" value="Payment" style="swimlane;fontStyle=1;align=center;verticalAlign=top;childLayout=stackLayout;horizontal=1;startSize=26;horizontalStack=0;resizeParent=1;resizeParentMax=0;resizeLast=0;collapsible=1;marginBottom=0;" parent="1" vertex="1">
          <mxGeometry x="350" y="430" width="190" height="150" as="geometry" />
        </mxCell>
        <mxCell id="BHZQhZg037N1I-XDxDPh-71" value="- pay_id : int&#xa;- pay_amount : float&#xa;- pay_method : int&#xa;- pay_date : date" style="text;strokeColor=none;fillColor=none;align=left;verticalAlign=top;spacingLeft=4;spacingRight=4;overflow=hidden;rotatable=0;points=[[0,0.5],[1,0.5]];portConstraint=eastwest;" parent="BHZQhZg037N1I-XDxDPh-70" vertex="1">
          <mxGeometry y="26" width="190" height="64" as="geometry" />
        </mxCell>
        <mxCell id="BHZQhZg037N1I-XDxDPh-72" value="" style="line;strokeWidth=1;fillColor=none;align=left;verticalAlign=middle;spacingTop=-1;spacingLeft=3;spacingRight=3;rotatable=0;labelPosition=right;points=[];portConstraint=eastwest;" parent="BHZQhZg037N1I-XDxDPh-70" vertex="1">
          <mxGeometry y="90" width="190" height="8" as="geometry" />
        </mxCell>
        <mxCell id="BHZQhZg037N1I-XDxDPh-73" value="+ displayPayment()&#xa;+ calcTotal()&#xa;+ confirmPayment()&#xa;" style="text;strokeColor=none;fillColor=none;align=left;verticalAlign=top;spacingLeft=4;spacingRight=4;overflow=hidden;rotatable=0;points=[[0,0.5],[1,0.5]];portConstraint=eastwest;" parent="BHZQhZg037N1I-XDxDPh-70" vertex="1">
          <mxGeometry y="98" width="190" height="52" as="geometry" />
        </mxCell>
        <mxCell id="BHZQhZg037N1I-XDxDPh-74" value="Bill" style="swimlane;fontStyle=1;align=center;verticalAlign=top;childLayout=stackLayout;horizontal=1;startSize=26;horizontalStack=0;resizeParent=1;resizeParentMax=0;resizeLast=0;collapsible=1;marginBottom=0;" parent="1" vertex="1">
          <mxGeometry x="580" y="430" width="190" height="158" as="geometry" />
        </mxCell>
        <mxCell id="BHZQhZg037N1I-XDxDPh-75" value="- billNo :int&#xa;- guestName : string" style="text;strokeColor=none;fillColor=none;align=left;verticalAlign=top;spacingLeft=4;spacingRight=4;overflow=hidden;rotatable=0;points=[[0,0.5],[1,0.5]];portConstraint=eastwest;" parent="BHZQhZg037N1I-XDxDPh-74" vertex="1">
          <mxGeometry y="26" width="190" height="54" as="geometry" />
        </mxCell>
        <mxCell id="BHZQhZg037N1I-XDxDPh-76" value="" style="line;strokeWidth=1;fillColor=none;align=left;verticalAlign=middle;spacingTop=-1;spacingLeft=3;spacingRight=3;rotatable=0;labelPosition=right;points=[];portConstraint=eastwest;" parent="BHZQhZg037N1I-XDxDPh-74" vertex="1">
          <mxGeometry y="80" width="190" height="8" as="geometry" />
        </mxCell>
        <mxCell id="BHZQhZg037N1I-XDxDPh-77" value="+ checkavaliability()&#xa;+ addReservation()&#xa;+modifyReservaton()&#xa;+deleteReservation()&#xa;" style="text;strokeColor=none;fillColor=none;align=left;verticalAlign=top;spacingLeft=4;spacingRight=4;overflow=hidden;rotatable=0;points=[[0,0.5],[1,0.5]];portConstraint=eastwest;" parent="BHZQhZg037N1I-XDxDPh-74" vertex="1">
          <mxGeometry y="88" width="190" height="70" as="geometry" />
        </mxCell>
        <mxCell id="BHZQhZg037N1I-XDxDPh-78" value="Notices" style="swimlane;fontStyle=1;align=center;verticalAlign=top;childLayout=stackLayout;horizontal=1;startSize=26;horizontalStack=0;resizeParent=1;resizeParentMax=0;resizeLast=0;collapsible=1;marginBottom=0;" parent="1" vertex="1">
          <mxGeometry x="20" y="-1670" width="160" height="170" as="geometry" />
        </mxCell>
        <mxCell id="BHZQhZg037N1I-XDxDPh-79" value="- Notice_ID: int&#xa;- Title: string&#xa;- Notice_Details: string&#xa;- Published_Date: string" style="text;strokeColor=none;fillColor=none;align=left;verticalAlign=top;spacingLeft=4;spacingRight=4;overflow=hidden;rotatable=0;points=[[0,0.5],[1,0.5]];portConstraint=eastwest;" parent="BHZQhZg037N1I-XDxDPh-78" vertex="1">
          <mxGeometry y="26" width="160" height="66" as="geometry" />
        </mxCell>
        <mxCell id="BHZQhZg037N1I-XDxDPh-80" value="" style="line;strokeWidth=1;fillColor=none;align=left;verticalAlign=middle;spacingTop=-1;spacingLeft=3;spacingRight=3;rotatable=0;labelPosition=right;points=[];portConstraint=eastwest;" parent="BHZQhZg037N1I-XDxDPh-78" vertex="1">
          <mxGeometry y="92" width="160" height="8" as="geometry" />
        </mxCell>
        <mxCell id="BHZQhZg037N1I-XDxDPh-81" value="+ displayNoticesDetails()&#xa;+ addNotices()&#xa;+ modifyNotices()&#xa;+ deleteNotices()" style="text;strokeColor=none;fillColor=none;align=left;verticalAlign=top;spacingLeft=4;spacingRight=4;overflow=hidden;rotatable=0;points=[[0,0.5],[1,0.5]];portConstraint=eastwest;" parent="BHZQhZg037N1I-XDxDPh-78" vertex="1">
          <mxGeometry y="100" width="160" height="70" as="geometry" />
        </mxCell>
        <mxCell id="BHZQhZg037N1I-XDxDPh-82" value="" style="endArrow=none;html=1;edgeStyle=orthogonalEdgeStyle;exitX=0.075;exitY=0.001;exitDx=0;exitDy=0;exitPerimeter=0;entryX=0.25;entryY=0;entryDx=0;entryDy=0;" parent="1" source="BHZQhZg037N1I-XDxDPh-40" target="BHZQhZg037N1I-XDxDPh-62" edge="1">
          <mxGeometry relative="1" as="geometry">
            <mxPoint x="60" y="-50" as="sourcePoint" />
            <mxPoint x="41" y="-110" as="targetPoint" />
            <Array as="points">
              <mxPoint x="41" y="-50" />
              <mxPoint x="598" y="-50" />
            </Array>
          </mxGeometry>
        </mxCell>
        <mxCell id="BHZQhZg037N1I-XDxDPh-83" value="1" style="edgeLabel;resizable=0;html=1;align=left;verticalAlign=bottom;" parent="BHZQhZg037N1I-XDxDPh-82" connectable="0" vertex="1">
          <mxGeometry x="-1" relative="1" as="geometry" />
        </mxCell>
        <mxCell id="BHZQhZg037N1I-XDxDPh-84" value="1..*" style="edgeLabel;resizable=0;html=1;align=right;verticalAlign=bottom;" parent="BHZQhZg037N1I-XDxDPh-82" connectable="0" vertex="1">
          <mxGeometry x="1" relative="1" as="geometry">
            <mxPoint x="-7.5" y="-9.84" as="offset" />
          </mxGeometry>
        </mxCell>
        <mxCell id="BHZQhZg037N1I-XDxDPh-85" value="" style="endArrow=diamondThin;endFill=0;endSize=24;html=1;entryX=0.25;entryY=0;entryDx=0;entryDy=0;" parent="1" edge="1">
          <mxGeometry width="160" relative="1" as="geometry">
            <mxPoint x="209.9990909090909" y="618" as="sourcePoint" />
            <mxPoint x="341.5899999999999" y="700" as="targetPoint" />
            <Array as="points">
              <mxPoint x="211.09" y="660" />
              <mxPoint x="342.09" y="660" />
            </Array>
          </mxGeometry>
        </mxCell>
        <mxCell id="BHZQhZg037N1I-XDxDPh-86" value="1..*" style="edgeLabel;html=1;align=center;verticalAlign=middle;resizable=0;points=[];" parent="BHZQhZg037N1I-XDxDPh-85" vertex="1" connectable="0">
          <mxGeometry x="-0.8971" y="4" relative="1" as="geometry">
            <mxPoint x="5.72" as="offset" />
          </mxGeometry>
        </mxCell>
        <mxCell id="BHZQhZg037N1I-XDxDPh-87" value="" style="endArrow=diamondThin;endFill=0;endSize=24;html=1;exitX=0.388;exitY=0.99;exitDx=0;exitDy=0;exitPerimeter=0;entryX=0.708;entryY=0;entryDx=0;entryDy=0;entryPerimeter=0;" parent="1" source="BHZQhZg037N1I-XDxDPh-73" target="BHZQhZg037N1I-XDxDPh-21" edge="1">
          <mxGeometry width="160" relative="1" as="geometry">
            <mxPoint x="440" y="640" as="sourcePoint" />
            <mxPoint x="600" y="640" as="targetPoint" />
          </mxGeometry>
        </mxCell>
        <mxCell id="BHZQhZg037N1I-XDxDPh-88" value="1" style="text;html=1;align=center;verticalAlign=middle;resizable=0;points=[];autosize=1;" parent="1" vertex="1">
          <mxGeometry x="320" y="660" width="20" height="20" as="geometry" />
        </mxCell>
        <mxCell id="BHZQhZg037N1I-XDxDPh-89" value="1" style="text;html=1;align=center;verticalAlign=middle;resizable=0;points=[];autosize=1;" parent="1" vertex="1">
          <mxGeometry x="425" y="660" width="20" height="20" as="geometry" />
        </mxCell>
        <mxCell id="BHZQhZg037N1I-XDxDPh-90" value="1..*" style="text;html=1;align=center;verticalAlign=middle;resizable=0;points=[];autosize=1;" parent="1" vertex="1">
          <mxGeometry x="420" y="580" width="30" height="20" as="geometry" />
        </mxCell>
        <mxCell id="T3t25tu2Qx5f0jsyrN8_-2" value="Inquires" style="swimlane;fontStyle=1;align=center;verticalAlign=top;childLayout=stackLayout;horizontal=1;startSize=26;horizontalStack=0;resizeParent=1;resizeParentMax=0;resizeLast=0;collapsible=1;marginBottom=0;" vertex="1" parent="1">
          <mxGeometry x="50" y="-32" width="160" height="180" as="geometry" />
        </mxCell>
        <mxCell id="T3t25tu2Qx5f0jsyrN8_-3" value="- Inquiry_id: int&#xa;- Cus_name : string&#xa;- Cus_email: string&#xa;- Inquiry_msg : string" style="text;strokeColor=none;fillColor=none;align=left;verticalAlign=top;spacingLeft=4;spacingRight=4;overflow=hidden;rotatable=0;points=[[0,0.5],[1,0.5]];portConstraint=eastwest;" vertex="1" parent="T3t25tu2Qx5f0jsyrN8_-2">
          <mxGeometry y="26" width="160" height="74" as="geometry" />
        </mxCell>
        <mxCell id="T3t25tu2Qx5f0jsyrN8_-4" value="" style="line;strokeWidth=1;fillColor=none;align=left;verticalAlign=middle;spacingTop=-1;spacingLeft=3;spacingRight=3;rotatable=0;labelPosition=right;points=[];portConstraint=eastwest;" vertex="1" parent="T3t25tu2Qx5f0jsyrN8_-2">
          <mxGeometry y="100" width="160" height="8" as="geometry" />
        </mxCell>
        <mxCell id="T3t25tu2Qx5f0jsyrN8_-5" value="+ displayInquireDetails()&#xa;+ addInquires()&#xa;+ modifyInquires()&#xa;+ deleteInquires()&#xa;" style="text;strokeColor=none;fillColor=none;align=left;verticalAlign=top;spacingLeft=4;spacingRight=4;overflow=hidden;rotatable=0;points=[[0,0.5],[1,0.5]];portConstraint=eastwest;" vertex="1" parent="T3t25tu2Qx5f0jsyrN8_-2">
          <mxGeometry y="108" width="160" height="72" as="geometry" />
        </mxCell>
        <mxCell id="T3t25tu2Qx5f0jsyrN8_-6" value="MeterHandling" style="swimlane;fontStyle=1;align=center;verticalAlign=top;childLayout=stackLayout;horizontal=1;startSize=26;horizontalStack=0;resizeParent=1;resizeParentMax=0;resizeLast=0;collapsible=1;marginBottom=0;" vertex="1" parent="1">
          <mxGeometry x="200" y="-1670" width="190" height="170" as="geometry" />
        </mxCell>
        <mxCell id="T3t25tu2Qx5f0jsyrN8_-7" value="- MeterH_ID: int&#xa;- Units: string&#xa;- Cus_Name: string&#xa;- Total_Charge: string" style="text;strokeColor=none;fillColor=none;align=left;verticalAlign=top;spacingLeft=4;spacingRight=4;overflow=hidden;rotatable=0;points=[[0,0.5],[1,0.5]];portConstraint=eastwest;" vertex="1" parent="T3t25tu2Qx5f0jsyrN8_-6">
          <mxGeometry y="26" width="190" height="66" as="geometry" />
        </mxCell>
        <mxCell id="T3t25tu2Qx5f0jsyrN8_-8" value="" style="line;strokeWidth=1;fillColor=none;align=left;verticalAlign=middle;spacingTop=-1;spacingLeft=3;spacingRight=3;rotatable=0;labelPosition=right;points=[];portConstraint=eastwest;" vertex="1" parent="T3t25tu2Qx5f0jsyrN8_-6">
          <mxGeometry y="92" width="190" height="8" as="geometry" />
        </mxCell>
        <mxCell id="T3t25tu2Qx5f0jsyrN8_-9" value="+ displayMeterHandlingDetails()&#xa;+ addMeterHandling()&#xa;+ modifyMeterHandling()&#xa;+ deleteMeterHandling()" style="text;strokeColor=none;fillColor=none;align=left;verticalAlign=top;spacingLeft=4;spacingRight=4;overflow=hidden;rotatable=0;points=[[0,0.5],[1,0.5]];portConstraint=eastwest;" vertex="1" parent="T3t25tu2Qx5f0jsyrN8_-6">
          <mxGeometry y="100" width="190" height="70" as="geometry" />
        </mxCell>
        <mxCell id="T3t25tu2Qx5f0jsyrN8_-10" value="Bill" style="swimlane;fontStyle=1;align=center;verticalAlign=top;childLayout=stackLayout;horizontal=1;startSize=26;horizontalStack=0;resizeParent=1;resizeParentMax=0;resizeLast=0;collapsible=1;marginBottom=0;" vertex="1" parent="1">
          <mxGeometry x="400" y="-1670" width="190" height="170" as="geometry" />
        </mxCell>
        <mxCell id="T3t25tu2Qx5f0jsyrN8_-11" value="- MeterH_ID: int&#xa;- Units: string&#xa;- Cus_Name: string&#xa;- Total_Charge: string" style="text;strokeColor=none;fillColor=none;align=left;verticalAlign=top;spacingLeft=4;spacingRight=4;overflow=hidden;rotatable=0;points=[[0,0.5],[1,0.5]];portConstraint=eastwest;" vertex="1" parent="T3t25tu2Qx5f0jsyrN8_-10">
          <mxGeometry y="26" width="190" height="66" as="geometry" />
        </mxCell>
        <mxCell id="T3t25tu2Qx5f0jsyrN8_-12" value="" style="line;strokeWidth=1;fillColor=none;align=left;verticalAlign=middle;spacingTop=-1;spacingLeft=3;spacingRight=3;rotatable=0;labelPosition=right;points=[];portConstraint=eastwest;" vertex="1" parent="T3t25tu2Qx5f0jsyrN8_-10">
          <mxGeometry y="92" width="190" height="8" as="geometry" />
        </mxCell>
        <mxCell id="T3t25tu2Qx5f0jsyrN8_-13" value="+ displayMeterHandlingDetails()&#xa;+ addMeterHandling()&#xa;+ modifyMeterHandling()&#xa;+ deleteMeterHandling()" style="text;strokeColor=none;fillColor=none;align=left;verticalAlign=top;spacingLeft=4;spacingRight=4;overflow=hidden;rotatable=0;points=[[0,0.5],[1,0.5]];portConstraint=eastwest;" vertex="1" parent="T3t25tu2Qx5f0jsyrN8_-10">
          <mxGeometry y="100" width="190" height="70" as="geometry" />
        </mxCell>
      </root>
    </mxGraphModel>
  </diagram>
</mxfile>
